<svg xmlns="http://www.w3.org/2000/svg" viewBox="0 0 3777.28 2605.24"><defs><style>.cls-1{fill:#dbe5e5;}.cls-14,.cls-2,.cls-3{fill:#fff;}.cls-12,.cls-14,.cls-3{stroke:#423c52;}.cls-10,.cls-12,.cls-14,.cls-3,.cls-6{stroke-linecap:round;}.cls-10,.cls-12,.cls-3,.cls-6,.cls-8{stroke-miterlimit:10;}.cls-12,.cls-14,.cls-3,.cls-6{stroke-width:5px;}.cls-4{fill:#423c52;}.cls-5{fill:#fe552f;}.cls-10,.cls-12,.cls-6,.cls-8{fill:none;}.cls-6{stroke:#fe552f;}.cls-7{fill:#b59b00;}.cls-10,.cls-8{stroke:#41465a;stroke-width:6px;}.cls-9{fill:#ffdb00;}.cls-11{fill:#907b00;}.cls-13{fill:#a0505a;}.cls-14{stroke-linejoin:round;}</style></defs><g id="Layer_2" data-name="Layer 2"><g id="Слой_1" data-name="Слой 1"><g id="GROUND"><path class="cls-1" d="M3745.22,2446h0A221.23,221.23,0,0,1,3558,2548.64c-892.72-1.78-1712-22-1712-49.84C1846,2469.72,2806.62,2446.13,3745.22,2446Z"/><ellipse class="cls-1" cx="2331.58" cy="2587.86" rx="169.21" ry="17.38"/></g><g id="FACTORY"><g id="SMOKE"><path class="cls-1" d="M1624.35,518.13c0,99.86-39.9,189.84-108.58,267.74-26.46,30-57.19,54.78-91.55,79.82v287.37h-87s-106.92-60.69-63.11-159.77c9.64-21.81,28.58-42.29,53-62.84,26.94-22.7,60.56-40.49,95.73-65.27C1405.05,640.07,1217.22,458,988.15,458c-125.14,0-238,52.86-317.5,137.53l0,0C758.72,663,814.74,764.42,814.74,877.8a339,339,0,0,1-15,99.73,216.47,216.47,0,0,1,70.6,34.21c44.31,32.79,72.39,81.56,72.39,136,0,67.76-43.48,126.72-107.58,157a230.53,230.53,0,0,1-98.66,21.75c-82.53,0-153.74-42-186.7-102.73a434.64,434.64,0,0,1-137.2,22c-222.07,0-402.09-164.76-402.09-368,0-159.69,111.12-295.61,266.45-346.55V518.13c0-118.86,56.53-238,150.84-323.5C551.36,82.59,739.7,21,950.68,21a893.4,893.4,0,0,1,213.5,25.48s-80.75,84.93-42,207.81C1140.6,114.38,1253.87,6.68,1390.86,6.68c149.84,0,271.3,128.84,271.3,287.76Z"/><ellipse class="cls-1" cx="821.61" cy="1424.03" rx="148.13" ry="49.02"/><circle class="cls-1" cx="2770.73" cy="61.22" r="40"/><circle class="cls-2" cx="465.7" cy="1126.45" r="38.59"/><circle class="cls-1" cx="139.89" cy="151.43" r="139.89"/><path class="cls-1" d="M2770.72,291.1c0,90.92-40.81,172.1-104.75,225.49-48.11,47.62-119.15,88.7-223.9,109.24-219.56,43.06-439.21-50.23-439.21-50.23L1643.29,866.87s170.31,105.37,63,286.19h-88.44V490.88c0-130.57,105.85-236.42,236.42-236.42h27.46A197.54,197.54,0,0,1,2189.7,176a286.65,286.65,0,0,0,31.68,224.39,295.73,295.73,0,0,1-20.77-109.29c0-160.77,127.62-291.1,285-291.1S2770.72,130.33,2770.72,291.1Z"/><circle class="cls-1" cx="861.28" cy="943.98" r="25"/><circle class="cls-2" cx="1696.38" cy="427.79" r="15"/><circle class="cls-2" cx="1776.69" cy="371.79" r="45"/></g><g id="FACTORY-2" data-name="FACTORY"><rect class="cls-1" x="1921.87" y="1462.23" width="283.26" height="633.39"/><rect class="cls-1" x="1361.72" y="1575.44" width="418.61" height="520.18"/><path class="cls-3" d="M1420.6,1153.06v940.06h-88.45V1153.06a44.23,44.23,0,0,1,88.45,0Z"/><polygon class="cls-4" points="1420.44 1631.9 1420.44 2093.12 1331.99 2093.12 1331.99 1718.37 1420.44 1631.9"/><circle class="cls-4" cx="1376.38" cy="1153.06" r="37.81" transform="translate(-215.63 1983.41) rotate(-67.5)"/><path class="cls-5" d="M1418.34,1231.66v25.22a52.57,52.57,0,0,1-84-.12V1231.4a45,45,0,0,0,84,.26Z"/><path class="cls-5" d="M1418.34,1196v25.22a52.58,52.58,0,0,1-84-.12v-25.36a45,45,0,0,0,84,.26Z"/><path class="cls-3" d="M1706.38,1153.06v578.38h-88.44V1153.06a44.22,44.22,0,1,1,88.44,0Z"/><circle class="cls-4" cx="1662.16" cy="1153.06" r="37.81" transform="translate(-39.21 2247.44) rotate(-67.5)"/><path class="cls-5" d="M1704.17,1196v25.22a52.58,52.58,0,0,1-84-.12v-25.36a45,45,0,0,0,84,.26Z"/><path class="cls-5" d="M1704.17,1231.66v25.22a52.57,52.57,0,0,1-84-.12V1231.4a45,45,0,0,0,84,.26Z"/><polygon class="cls-4" points="1706.38 1631.9 1706.38 1731.44 1617.94 1731.44 1617.94 1718.37 1706.38 1631.9"/><rect class="cls-4" x="1420.6" y="1728.83" width="535.03" height="366.79"/><rect class="cls-3" x="1534.45" y="1731.44" width="535.03" height="364.18"/><rect class="cls-4" x="1751.88" y="1640.59" width="319.66" height="90.85"/><rect class="cls-3" x="1859.82" y="1643.2" width="209.78" height="88.24"/><rect class="cls-3" x="2069.49" y="1873.32" width="222.3" height="222.3"/><rect class="cls-4" x="1580.88" y="1785.94" width="29.41" height="36.34"/><rect class="cls-4" x="1715.02" y="1785.94" width="29.41" height="36.34"/><rect class="cls-4" x="1849.16" y="1785.94" width="29.41" height="36.34"/><rect class="cls-4" x="1983.29" y="1785.94" width="29.41" height="36.34"/><line class="cls-6" x1="2107.79" y1="1924.55" x2="2107.79" y2="2048.86"/><line class="cls-6" x1="2136.47" y1="1924.55" x2="2136.47" y2="2048.86"/><line class="cls-6" x1="2165.15" y1="1924.55" x2="2165.15" y2="2048.86"/><line class="cls-6" x1="2193.83" y1="1924.55" x2="2193.83" y2="2048.86"/><line class="cls-6" x1="2222.52" y1="1924.55" x2="2222.52" y2="2048.86"/><line class="cls-6" x1="2251.2" y1="1924.55" x2="2251.2" y2="2048.86"/><path class="cls-3" d="M1607.88,2095.62H810.18c147.4-111.08,243.65-294.2,243.65-501.3,0-41.33,69.49-74.83,155.2-74.83s155.2,33.5,155.2,74.83C1364.23,1801.42,1460.48,1984.54,1607.88,2095.62Z"/><ellipse class="cls-4" cx="1209.03" cy="1596.87" rx="142.68" ry="68.8"/><path class="cls-5" d="M1052,1667.26c.39,37.86,69.46,68.81,157.12,68.81s157-30.63,157.4-68.49l5.29,37.27c-15.4,33.17-81.42,58.17-162.69,58.17-81.51,0-147.18-25.36-162.31-58.69Z"/><path class="cls-3" d="M1224.59,2095.62H426.89c147.4-111.08,243.65-294.2,243.65-501.3,0-41.33,69.49-74.83,155.2-74.83s155.2,33.5,155.2,74.83C980.94,1801.42,1077.19,1984.54,1224.59,2095.62Z"/><ellipse class="cls-4" cx="825.74" cy="1596.87" rx="142.68" ry="68.8"/><path class="cls-5" d="M668.64,1667.85c.38,37.86,71.48,68.5,159.14,68.5s154.59-30.7,155-68.56l5.27,37.12c-15.4,33.17-79,58.38-160.24,58.38-81.51,0-149.14-25-164.26-58.31Z"/></g></g><g id="PLANTS"><path class="cls-7" d="M3777.28,2320.15c0,45-9.28,88.63-32.54,125.89-279.89,0-561.73,2.15-819.45,5.88,37.16-199.15,230-134.88,259.47-123.82-.09-2.64-.13-5.3-.13-7.95,0-150.92,132.67-273.27,296.33-273.27q9.23,0,18.33.51c65,3.66,124.35,26.64,171.35,62.82C3735.82,2160.32,3777.28,2235.77,3777.28,2320.15Z"/><path class="cls-8" d="M3435.18,2184s-12.72,224,4.21,320.48"/><path class="cls-8" d="M3472,2218.5s-2.51,36-39.09,45.57"/><path class="cls-8" d="M3359.39,2279.93s9.69,53.56,71.21,67.79"/><path class="cls-8" d="M3409.22,2213.66s5.86,23.14,23.51,26.87"/><circle class="cls-9" cx="3472.62" cy="2216.09" r="11.33"/><circle class="cls-9" cx="3409.14" cy="2214.9" r="9.98"/><circle class="cls-2" cx="3434.86" cy="2133.09" r="27.66"/><path class="cls-9" d="M3435.68,2195.25c-12.86,4.41-27.94,1.94-38.29-7.44a30.72,30.72,0,0,1-10.2-27.6c12.59-4.39,27.38-2.18,37.75,6.79C3433.69,2174.55,3437.29,2185.16,3435.68,2195.25Z"/><path class="cls-9" d="M3433.28,2195.25c12.86,4.41,27.94,1.94,38.29-7.44a30.72,30.72,0,0,0,10.2-27.6c-12.59-4.39-27.38-2.18-37.75,6.79C3435.27,2174.55,3431.67,2185.16,3433.28,2195.25Z"/><circle class="cls-2" cx="3358.35" cy="2235.36" r="23.63"/><path class="cls-9" d="M3361,2288.75c-10.68,4.13-23.47,2.54-32.49-5a25.9,25.9,0,0,1-9.5-22.92c10.47-4.1,23-2.72,32,4.5A25.87,25.87,0,0,1,3361,2288.75Z"/><path class="cls-9" d="M3359,2288.82c11,3.31,23.6.73,32-7.51a25.9,25.9,0,0,0,7.7-23.59c-10.75-3.28-23.13-.94-31.58,7A25.89,25.89,0,0,0,3359,2288.82Z"/><path class="cls-10" d="M3612.68,2414.27s1.72,63.9,58,64.63h46"/><circle class="cls-2" cx="3611.69" cy="2371.77" r="22.53"/><path class="cls-9" d="M3614.23,2422.67c-10.19,3.95-22.38,2.43-31-4.79a24.68,24.68,0,0,1-9.05-21.85c10-3.91,21.92-2.59,30.53,4.29A24.68,24.68,0,0,1,3614.23,2422.67Z"/><path class="cls-9" d="M3612.31,2422.75c10.46,3.14,22.49.69,30.51-7.17a24.67,24.67,0,0,0,7.34-22.48c-10.25-3.13-22-.9-30.11,6.63A24.65,24.65,0,0,0,3612.31,2422.75Z"/><path class="cls-11" d="M3500.82,2548.28s40.94-1.49,68.59-32.66c12.23-13.79-1.7-34.81-19.09-28.72l-59.72,20.88s62.56-60.17,71.91-181.2c2.09-27.08-30.82-41.8-49.59-22.16-31.53,33-70.09,83.22-89.66,146.45,0,0-1.37-49.59-37.74-100-14.83-20.58-47.38-11.63-49.66,13.63-.64,7.11-1,14.88-1,23.29,0,0-22.52-25.48-50.58-52-22.6-21.34-58.75,1.55-49.08,31.09,9,27.47,41.65,80.59,57.57,102.28,0,0-61.43-23.09-78.16,4-23.1,37.37,76.58,76,76.58,76Z"/><path class="cls-7" d="M89.57,2099.1a139.68,139.68,0,0,1,106-230.67q6.9,0,13.64.66c31.47-118.71,113.91-203.42,210.66-203.42,123.87,0,230,131.52,224.3,310.2-1.39,43.31-6.44,84.63-18,122.1Z"/><path class="cls-11" d="M170.82,2099c28.53-50.88,76.87-11.67,76.87-11.67s-13.82-72,46.19-93.6c68.79-24.82,96.31,36.67,96.31,36.67s-2.95-106.95,106.58-106.95c98.81,0,111.42,180.15,275.56,118,109.72-41.53,199.66,57,199.66,57Z"/></g><g id="WOMAN"><g id="LEGS"><path class="cls-5" d="M3110.09,2364.56c-1.2.31-119.72,30.25-201.68,6.3-42.84-81.86-370.8-641.13-388.93-712.21.56,3.89,36.72,252.89,85.35,379.47,48.56,126.38,39.4,251.6,21.47,335,0,0-124.2,12-203.47,0-11.08-168.44-120.28-613.9-119.84-976,0,0,26.07,20.24,77.29,44.67,62.88,30,163.68,66.29,300.68,79.19,0,0,8.27,22,25.05,58.23,31.37,67.63,92.47,184.71,184.89,299.69C3013.32,2031.21,3106.57,2152.57,3110.09,2364.56Z"/><line class="cls-12" x1="2519.48" y1="1658.65" x2="2495.25" y2="1608.43"/><path class="cls-4" d="M2706,1579.24c-101.23-31-240.48-92.86-325.73-137.42,62.88,30,163.68,66.29,300.68,79.19C2681,1521,2689.23,1543.05,2706,1579.24Z"/></g><g id="SHOES"><g id="RIGHT"><path class="cls-3" d="M3103.14,2473H2901.28s40.38-38.06,11.54-96.89c-.7-1.43-1.59-3.18-2.67-5.23,81.95,23.95,197-6,198.2-6.3A883.94,883.94,0,0,1,3103.14,2473Z"/><path class="cls-3" d="M3054.7,2473s13.84-19.6,16.73-43.83"/><line class="cls-12" x1="2943.96" y1="2408.97" x2="3004.87" y2="2408.97"/><line class="cls-12" x1="2943.09" y1="2422" x2="3004" y2="2422"/></g><g id="LEFT"><path class="cls-3" d="M2624.56,2373.11c-13.16,61.21-30.11,99.87-30.11,99.87h-26s1.77-35.14-16.72-35.17L2518.92,2473H2341.83s86.09-39.19,83.06-94.58c-.1-1.73-.2-3.49-.32-5.29C2503.84,2385.12,2624.56,2373.11,2624.56,2373.11Z"/><line class="cls-12" x1="2404.23" y1="2408.97" x2="2456.44" y2="2408.97"/><line class="cls-12" x1="2394.67" y1="2422" x2="2446.88" y2="2422"/></g></g><g id="HAIR"><path class="cls-13" d="M2554,929.29c-17.39-6-32.63-24.18-24.38-35.6,6.22-8.59,112.93-9.65,144.94,14.18a75.09,75.09,0,0,1,22.06,27,34.67,34.67,0,0,0,48.11,14.8c31.53-17.94,79.76-33.87,131.12-8.5,96.27,47.53,58.76,159.82,58.76,159.82s92.87-55.19,143.93,21.79c53,79.94-17.8,188-142.8,195s-137.77-53.85-160.2-102.22c-22.87-49.34,1.64-124.63,1.64-124.63s-76.11,36.05-127.24,11.06c-60.88-29.75-26.41-97.22-26.41-97.22Z"/><circle class="cls-13" cx="3054.7" cy="1328.22" r="25"/></g><g id="BLOUSE"><path class="cls-3" d="M2767.2,1532.27l-35.12-4.59c-.22-1.7-26.19-207.93-56-212.51-41.8-6.42,4.9,205.84,4.9,205.84-248.58-23.41-378-123.86-378-123.86.07-55.6,2.76-109.21,8.85-159.57,0,0-130.76,101.65-236.47,58.82-19.12-7.74-34.23-25.72-49-47.55L2129.57,1113l182.2-102.24a165.63,165.63,0,0,1,155.18-4.94L2695.6,1118a190,190,0,0,1,84.55,82.32l87.11,166.21C2907.73,1443.7,2854.32,1535,2767.2,1532.27Z"/><line class="cls-12" x1="2311.84" y1="1237.58" x2="2322.22" y2="1144.72"/></g><g id="HANDS"><g id="BROOM"><line class="cls-12" x1="2711.72" y1="1652.55" x2="1859.34" y2="751.05"/><path class="cls-14" d="M1987.46,585.89,2002,660.76a31.72,31.72,0,0,1-11,30.53L1761.28,880.11a31.69,31.69,0,0,1-32.07,4.88l-70.66-28.71Z"/><path class="cls-14" d="M1995.38,686.88a32.82,32.82,0,0,1-4.41,4.41l-.13.11-5.06,4.16-4.5,3.7L1956.07,720l-3.39,2.78-2.1,1.73-2.4,2L1919.59,750l-3.78,3.1-.73.6-4.76,3.91-23.82,19.58-4.51,3.71-6.44,5.3-5.48,4.5-16.67,13.7-4.51,3.71-13.6,11.18-5.48,4.5-9.5,7.82-4.52,3.71L1795,852.36l-5.48,4.5-2.35,1.94-4.51,3.7-21.42,17.61a31.61,31.61,0,0,1-7.16,4.44c-.74.33-1.49.64-2.24.91s-1.51.5-2.26.71a31.63,31.63,0,0,1-19.18-.71l-1.23-.47-8.19-3.33-4.5-1.83-28.59-11.62-4.51-1.82L1660,856.86l-1.43-.58,4.77-3.92,20.1-16.53,4.51-3.7,10.16-8.36,5.48-4.5,13-10.64,4.5-3.71,17.33-14.24,5.48-4.5,5.79-4.77,4.5-3.7,24.48-20.12,4.1-3.37,1.39-1.14,3.12-2.57,28.58-23.5,3.07-2.52,1.45-1.19,4-3.32,24.54-20.18,4.51-3.7,5.72-4.7,5.48-4.52L1882,672.6l4.51-3.71,12.88-10.59,5.48-4.51,10.22-8.41,4.51-3.7,20.05-16.48,5.47-4.5,3.07-2.52,4.5-3.7,27.22-22.37,1.38-1.14,4.09-3.37.41-.34,1.69-1.38.33,1.72.87,4.51,5.54,28.59.87,4.5,5.54,28.59.87,4.51.47,2.46A31.69,31.69,0,0,1,1995.38,686.88Z"/><polygon class="cls-4" points="1687.93 832.13 1687.93 868.21 1683.42 866.39 1683.42 835.83 1687.93 832.13"/><polygon class="cls-4" points="1721.02 804.92 1721.02 881.66 1716.52 879.83 1716.52 808.63 1721.02 804.92"/><path class="cls-4" d="M1754.12,777.71V884.55c-.74.33-1.49.64-2.24.91s-1.51.5-2.26.71V781.41Z"/><polygon class="cls-4" points="1787.21 750.51 1787.21 858.8 1782.7 862.5 1782.7 754.22 1784.09 753.08 1787.21 750.51"/><polygon class="cls-4" points="1820.31 723.3 1820.31 831.59 1815.79 835.3 1815.79 727.01 1818.86 724.49 1820.31 723.3"/><polygon class="cls-4" points="1853.4 696.1 1853.4 804.38 1848.89 808.09 1848.89 699.8 1853.4 696.1"/><polygon class="cls-4" points="1886.5 668.88 1886.5 777.17 1881.99 780.88 1881.99 672.6 1886.5 668.88"/><polygon class="cls-4" points="1919.59 641.68 1919.59 749.98 1915.81 753.08 1915.09 753.68 1915.09 645.38 1919.59 641.68"/><polygon class="cls-4" points="1952.68 614.48 1952.68 722.76 1950.58 724.49 1948.18 726.47 1948.18 618.18 1952.68 614.48"/><polygon class="cls-4" points="1985.78 587.26 1985.78 695.56 1981.28 699.26 1981.28 590.97 1985.37 587.6 1985.78 587.26"/><path class="cls-4" d="M1751.88,885.46c-.75.27-1.51.5-2.26.71a31.63,31.63,0,0,1-19.18-.71Z"/><polygon class="cls-4" points="1795.04 852.36 1789.56 856.86 1659.98 856.86 1658.55 856.28 1663.32 852.36 1795.04 852.36"/><polygon class="cls-4" points="1835.29 819.27 1829.81 823.77 1698.09 823.77 1703.57 819.27 1835.29 819.27"/><polygon class="cls-4" points="1875.55 786.17 1870.07 790.68 1738.35 790.68 1743.83 786.17 1875.55 786.17"/><polygon class="cls-4" points="1915.81 753.08 1915.09 753.68 1910.32 757.59 1778.6 757.59 1782.7 754.22 1784.09 753.08 1915.81 753.08"/><polygon class="cls-4" points="1956.07 719.98 1952.68 722.76 1950.58 724.49 1818.86 724.49 1820.31 723.3 1824.35 719.98 1956.07 719.98"/><path class="cls-4" d="M1995.38,686.88a32.82,32.82,0,0,1-4.41,4.41l-.13.11H1859.12l5.48-4.52Z"/><polygon class="cls-4" points="2001.49 658.3 1899.38 658.3 1904.86 653.79 2000.62 653.79 2001.49 658.3"/><polygon class="cls-4" points="1995.08 625.2 1939.64 625.2 1945.11 620.7 1994.21 620.7 1995.08 625.2"/><polygon class="cls-4" points="1988.67 592.11 1979.9 592.11 1981.28 590.97 1985.37 587.6 1987.8 587.6 1988.67 592.11"/></g><g id="RIGHT-2" data-name="RIGHT"><path class="cls-4" d="M2861.52,1484.93a76.37,76.37,0,0,1-38.63,34.75h0c-1.11.45-2.24.86-3.39,1.26a79.56,79.56,0,0,0,32.9-64.07v-.24a75.12,75.12,0,0,0-68.58-74.84l-51.72-1.88,26.31-8.4c50.16-16.18,95.56,9.62,108.7,47.47l.07.24A81.64,81.64,0,0,1,2861.52,1484.93Z"/><path class="cls-9" d="M2852.38,1456.88v-.25a75.1,75.1,0,0,0-68.58-74.82l-261.68-9.55-3.15-5.79a58.73,58.73,0,0,0-40.76-29.64h0a58.67,58.67,0,0,0-27.89,1.53L2427,1348l-25.74-27.62a2,2,0,0,0-3.34.81c-4.53,16.37-23.09,87.64-9.87,109.9,32.8,55.24,252.28,90.85,381.28,103.69C2813.79,1539.23,2852.38,1501.61,2852.38,1456.88Z"/><path class="cls-12" d="M2391.33,1357.82c-.11,4.72-.78,13.17,1.88,17.67,5.83,9.8,17.53,18.91,33.57,27.32"/><path class="cls-12" d="M2386.33,1385.82c-.11,4.72-.78,13.17,1.88,17.67,5.83,9.8,17.53,18.91,33.57,27.32"/><path class="cls-12" d="M2399.06,1321.78c-.1,4.72-1.56,21.4,1.11,25.89,5.82,9.81,17.53,18.92,33.56,27.33"/><line class="cls-12" x1="2429.56" y1="1348.89" x2="2464.49" y2="1360.43"/><line class="cls-12" x1="2522.12" y1="1372.26" x2="2522.12" y2="1397.15"/></g><g id="LEFT-2" data-name="LEFT"><path class="cls-4" d="M2177.36,1251a82,82,0,0,1-41.13,39.17c-.69.3-1.39.59-2.1.88a85.51,85.51,0,0,1-79.63-8.13,138.53,138.53,0,0,1-16.73-18.31,78.5,78.5,0,0,0,122-92.45l-12.55-27.82,6.76,5.38C2184.37,1174,2194.55,1216.18,2177.36,1251Z"/><path class="cls-9" d="M2117.62,1277.26a78.43,78.43,0,0,1-93-26.67l0,0c-1.44-2.14-2.87-4.34-4.28-6.58a.41.41,0,0,0,0-.09c-68.56-109.6-89.48-340.3-81-373.13,7.23-28.13,87.67-41.53,93.43-34.6,4.37,5.24,36.52,72,51.87,104.1a19.19,19.19,0,0,1-8.74,25.44L2067.3,970l65.75,143,26.71,59.19A78.51,78.51,0,0,1,2117.62,1277.26Z"/><path class="cls-12" d="M1974.72,871.33c26.42-11.88,63.67-16.34,67.53-11.7"/><path class="cls-12" d="M1988.62,898.27c26.42-11.87,63.68-16.33,67.53-11.7"/><path class="cls-12" d="M2003.4,928.69c26.42-11.87,63.68-16.33,67.53-11.7"/><path class="cls-4" d="M2088.28,993.73l-29.55-43.51a5.2,5.2,0,0,0-6.21-2.93l-2.83.8a5.22,5.22,0,0,0-1.43,9.38Z"/></g></g><g id="NECK"><path class="cls-9" d="M2623.68,996.16v84.74s-17,26.89-50.59,15.12c-29.66-10.39-25.14-53.6-25.14-53.6l1.2-39.45Z"/><polygon class="cls-4" points="2549.15 1003.84 2623.68 997.03 2623.68 1084.56 2548.82 1012.12 2549.15 1003.84"/></g><g id="HEAD"><path class="cls-9" d="M2652.82,989.18a18.06,18.06,0,0,1-21.75,13.41l-13.57-3.21-.12.37s-29.38,25-62.51,11.47,0-81.55,0-81.55c29.21,16,59.38,8.17,69.55,7.69,10.87-.51,6,21.19,4.39,27.56l10.59,2.51A18.07,18.07,0,0,1,2652.82,989.18Z"/><path class="cls-12" d="M2627.32,986.09a11.58,11.58,0,0,1,13.93-8.59"/><path class="cls-12" d="M2552.62,939.93s14.83,10.08,7.22,41.62"/><path class="cls-12" d="M2586.19,949.23s10.84,2.31,16.37,10.91"/><ellipse class="cls-4" cx="2585.87" cy="966.88" rx="5.9" ry="3.14" transform="translate(1048.9 3260.19) rotate(-76.67)"/><ellipse class="cls-4" cx="2551.15" cy="959.39" rx="5.2" ry="2.77" transform="translate(1029.47 3220.65) rotate(-76.67)"/><path class="cls-4" d="M2624.09,937.38c-10.61.69-51,12.88-73.9,2.84,2.27-5.63,4.68-10.55,4.68-10.55C2583.77,945.46,2613.6,938,2624.09,937.38Z"/></g></g></g></g></svg>