<svg xmlns="http://www.w3.org/2000/svg" viewBox="0 0 4764.92 2035.16"><defs><style>.cls-1{fill:#e5f1ef;}.cls-2{fill:#c8d9d2;}.cls-3{fill:#b59b00;}.cls-12,.cls-17,.cls-4,.cls-7{fill:#fff;}.cls-5{fill:#a0505a;}.cls-6{fill:#423c52;}.cls-11,.cls-16,.cls-17,.cls-21,.cls-7,.cls-8{stroke:#423c52;}.cls-11,.cls-13,.cls-16,.cls-17,.cls-21,.cls-7,.cls-8{stroke-linecap:round;}.cls-11,.cls-12,.cls-13,.cls-15,.cls-19,.cls-21,.cls-7,.cls-8{stroke-miterlimit:10;}.cls-12,.cls-13,.cls-16,.cls-17,.cls-19,.cls-7,.cls-8{stroke-width:5px;}.cls-11,.cls-13,.cls-15,.cls-16,.cls-19,.cls-21,.cls-8{fill:none;}.cls-9{fill:#ff7500;}.cls-10{fill:#ffdb00;}.cls-11,.cls-15{stroke-width:4px;}.cls-12,.cls-19{stroke:#fe552f;}.cls-13,.cls-15{stroke:#fff;}.cls-14{fill:#907b00;}.cls-16,.cls-17{stroke-linejoin:round;}.cls-18{fill:#fe552f;}.cls-20{fill:#eb7500;}.cls-21{stroke-width:6px;}</style></defs><g id="Layer_2" data-name="Layer 2"><g id="Слой_1" data-name="Слой 1"><ellipse id="SHADOW" class="cls-1" cx="2773.32" cy="1852.22" rx="1818.57" ry="28.19"/><g id="BUSHES"><path class="cls-2" d="M770.13,1634.05c35.1-77,59.27-136.28,146.63-138.34,157.38-3.72,136.59,137.73,193.76,128.28s-17.19-290.57,262.33-315.85C1628.28,1285,1625.11,1545,1702,1543.33c41.74-.91,63.18-136.83,194.77-103.89,113.93,28.51,67.73,206.64,197.44,166.77s108.34,49.9,108.34,49.9c252.59-75.57,260.86,35.8,260.86,35.8l-2002,0S642.85,1534.24,770.13,1634.05Z"/><path class="cls-3" d="M3523.16,1565.13c45.75,7.83,26.79-146.41,160.8-187.73,57.05-17.59,105.84-.85,149.5,19.9,63.7,30.29,104.63,41.57,168.67-33.52,89.3-104.7,205.56-108,272.59-91.3,58.85,12.56,171.59,44,252.19,235.9,16.19,38.54,39.47,75.12,89.38,65.34,103.79-20.32,173.54,50.21,140.23,117.67H3306.27S3331.43,1532.29,3523.16,1565.13Z"/></g><g id="CLOUDS"><path class="cls-1" d="M2120.65,317.72H1904s114-47.7,148.66-47.7S2115.93,286.42,2120.65,317.72Z"/><path class="cls-1" d="M1132.83,222A109.16,109.16,0,0,0,1044,127.31C1069.68,53.47,1145.13,0,1234.2,0c110.28,0,199.68,82,199.68,183.08,0,0-64.78,21.69-68.6,82.66,1.94-4.92,24.16-54.51,81.62-59.08,43.65-3.48,94.07,26.09,100,69.62,0,0,236.63-64.17,238,41.44H783.71c0-.47,0-.94,0-1.41,0-38.47,36.19-69.64,80.82-69.64A89.72,89.72,0,0,1,910,258.76c3.35-60,55.67-107.89,119.73-107.68C1102.56,151.32,1132.83,222,1132.83,222Z"/><circle class="cls-4" cx="1140.26" cy="89.62" r="23.88"/><path class="cls-1" d="M3961.46,385.69H3152c1.68-8.35,60-50.16,173.11-16.33,0,0-10.57-44.44,53.64-24.71s41.35-68.46,97.77-82.58c32.91-8.24,51.9,4.86,65.3,19.9a59.08,59.08,0,0,1,7.11,59.84,69.47,69.47,0,0,0,9.29-35,68.69,68.69,0,0,0-13.31-41.06c14.61-79.8,88.11-140.49,176.6-140.49,99,0,179.24,76,179.24,169.66a163.19,163.19,0,0,1-.91,17.21c10.14-12.57,32.56-23.8,63.14-23.08.69,0,1.39,0,2.09.08C4027.07,292.74,4023.54,385.69,3961.46,385.69Z"/><circle class="cls-4" cx="3612.01" cy="237.89" r="17.58"/></g><g id="_4_CHARACTER" data-name="4 CHARACTER"><g id="LEGS"><g id="LEFT"><polygon class="cls-5" points="3725.54 1594.44 3691.86 1683.68 3809.3 1683.68 3840.02 1610.95 3725.54 1594.44"/><polygon class="cls-6" points="3835.72 1620.65 3840.02 1610.95 3725.54 1594.44 3710.4 1635.88 3835.72 1620.65"/><path class="cls-7" d="M3693.83,1683.68l-22.64,58.94a15.94,15.94,0,0,0,14.88,21.66h187.35v-8.78a27.26,27.26,0,0,0-8.65-19.92l-55.47-51.9Z"/><path class="cls-8" d="M3675.13,1731.79a15.94,15.94,0,0,0,14.88,21.65h182.42"/><line class="cls-8" x1="3733.23" y1="1683.68" x2="3707.22" y2="1753.44"/><line class="cls-8" x1="3745.05" y1="1683.68" x2="3719.04" y2="1753.44"/><line class="cls-8" x1="3756.87" y1="1683.68" x2="3730.86" y2="1753.44"/><path class="cls-8" d="M3842.18,1712.94v-6.72A11.27,11.27,0,0,0,3830.9,1695h-27.2a11.26,11.26,0,0,0-11.27,11.27"/><path class="cls-8" d="M3861.31,1728.62v-6.73a11.28,11.28,0,0,0-11.27-11.27h-27.21a11.28,11.28,0,0,0-11.27,11.27"/></g><g id="RIGHT"><path class="cls-5" d="M4166.25,1615.83v71H4048.82V1624A683.47,683.47,0,0,0,4166.25,1615.83Z"/><path class="cls-6" d="M4166.25,1615.83v10.89l-117.43,29.55V1624A683.47,683.47,0,0,0,4166.25,1615.83Z"/><path class="cls-7" d="M4050.78,1682.87l-18,62.84a14.38,14.38,0,0,0,13.76,18.57h217.71V1753a21.66,21.66,0,0,0-12.24-19.5l-85.8-50.62Z"/><path class="cls-8" d="M4036.11,1734.87a14.37,14.37,0,0,0,13.75,18.57h213.77"/><line class="cls-8" x1="4085.85" y1="1683.68" x2="4069.69" y2="1753.44"/><line class="cls-8" x1="4097.67" y1="1683.68" x2="4081.51" y2="1753.44"/><line class="cls-8" x1="4109.49" y1="1683.68" x2="4093.33" y2="1753.44"/><path class="cls-8" d="M4218.37,1713.5v-6.73a11.27,11.27,0,0,0-11.27-11.27h-20.31a11.28,11.28,0,0,0-11.27,11.27"/><path class="cls-8" d="M4239.48,1722.45a11.27,11.27,0,0,0-11.28-11.27h-22.28a11.27,11.27,0,0,0-11.27,11.27"/></g></g><path id="RIGHT_HAND" data-name="RIGHT HAND" class="cls-5" d="M4206.85,584.33c36,5.14,67.61,33.38,74.51,69.15l38.8,190.12a116.81,116.81,0,0,1,3.26,27.37v8.23a116.57,116.57,0,0,1-116.57,116.57h0Z"/><g id="HAIR"><path class="cls-9" d="M3999.71,820.61H3629.77c0-4.54-7.29-153.45,129.21-159.11,100.13-4.15,36.33-102.17,108.39-150.77,56.12-37.84,165.25,12.21,170.66-29.68,6.17-47.69,25.76-67.58,60.4-67.56,26,0,56.08,15.95,56.08,26.12,0,0-24.25,31.71-67.56,26.41l-.95,27.49s2.2,79.77-114.76,88.65Z"/><ellipse class="cls-9" cx="3777.1" cy="603.73" rx="25.59" ry="16.61" transform="translate(939.18 3168.33) rotate(-51.19)"/></g><g id="CLOTHES"><path class="cls-10" d="M4206.85,773.34V1608s-92.06,23.16-196.07,13.91c0,0-43.2-34.84-27.34-86.52,10.35-33.74,48.28-45.22,15-87-16.57-20.8-13.68-56.6-5.61-89.4l26.59-74.07c-.72,1.47-17.19,35.73-26.59,74.07l-92.09,256.43c-77.3-2.39-208.89-27.23-208.89-27.23-17.81-37.09-15.08-73,19-92.6,33-19-12.08-52.67,6.24-105.28,16.17-46.41,48.74-43,74.8-79.74,44.57-62.75,204.61-481.68,204.61-481.68l-42.61-244.61,56.38-8.85,106.73,106,57.57-101.34,32.3,4.6V589l27.73,116.73C4240.73,731.59,4229.68,758.44,4206.85,773.34Z"/><polyline class="cls-8" points="3900.75 1614.49 4129.67 979.71 4153.49 979.71"/><path class="cls-8" d="M4229.71,753.67c-8.79,15-24.21,22.8-45,25.19"/></g><g id="LEFT_HAND" data-name="LEFT HAND"><path class="cls-5" d="M3953.86,584.33a91.33,91.33,0,0,0-82.44,52l-88,225.16a83.57,83.57,0,0,0-7.37,34.32h0a83.69,83.69,0,0,0,83.69,83.69h1a83.81,83.81,0,0,0,36.7-8.47l179.17-87.43V806.89l-127.55,8.85,27.77-97.6Z"/><rect class="cls-5" x="4045.32" y="794.35" width="120.83" height="90.48" rx="18.25"/><rect class="cls-8" x="4045.32" y="794.35" width="120.83" height="90.48" rx="18.25"/><line class="cls-8" x1="4071.08" y1="814.25" x2="4071.08" y2="884.33"/><path class="cls-8" d="M4102.35,814.24v61.67a8.92,8.92,0,0,1-8.92,8.92h-4.86"/><path class="cls-8" d="M4134.1,814.24v61.67a8.92,8.92,0,0,1-8.92,8.92h-4.85"/></g><g id="SCOOTER"><line class="cls-8" x1="4024.81" y1="839.58" x2="4435.63" y2="839.58"/><circle class="cls-8" cx="4457.31" cy="1734.78" r="102.7"/><path class="cls-8" d="M4541.3,1739.67a71.15,71.15,0,0,1-29.09,57.44"/><circle class="cls-8" cx="3480.39" cy="1734.78" r="102.7"/><path class="cls-8" d="M3561.5,1736.3a80.1,80.1,0,0,0-39-68.8"/><circle class="cls-7" cx="3480.39" cy="1735.19" r="18.58"/><path class="cls-8" d="M4456.77,1605.87a148.27,148.27,0,0,0-148.27,148.27l.13,10.14H3633.72a15.66,15.66,0,0,1-15.66-15.66v-18.36a128.74,128.74,0,0,0-128.74-128.74"/><path class="cls-8" d="M4166.5,839.58a92.84,92.84,0,0,1,90.21,70.89l200.6,824.31"/><path class="cls-8" d="M4258.32,915.7a61.79,61.79,0,0,1,60.1-76.12h1.74"/><circle class="cls-7" cx="4457.71" cy="1735.19" r="18.58"/></g><g id="RIGHT_ARM" data-name="RIGHT ARM"><rect class="cls-5" x="4297.02" y="794.69" width="120.46" height="90.2" rx="19.28"/><path class="cls-8" d="M4416.34,862.89a22,22,0,0,1-22,22h-76.44a22,22,0,0,1-22-22V816.7a22,22,0,0,1,22-22"/><path class="cls-8" d="M4360.08,814.53V876a8.89,8.89,0,0,1-8.89,8.9h-4.84"/><path class="cls-8" d="M4330.28,814.53V876a8.89,8.89,0,0,1-8.89,8.9h-4.84"/><path class="cls-8" d="M4388,814.53V876a8.89,8.89,0,0,1-8.89,8.9h-4.84"/></g><g id="BAG"><path class="cls-9" d="M3794.37,1075.7a18.78,18.78,0,0,1,3.13,28.07l-80.43,88.11a3.41,3.41,0,0,1-5.53-3.88L3767,1082.38a18.78,18.78,0,0,1,27.38-6.68Z"/><circle class="cls-10" cx="3680.69" cy="1145.19" r="39.16"/><ellipse class="cls-3" cx="3617.94" cy="1097.28" rx="23.59" ry="17.05"/><ellipse class="cls-3" cx="3666.25" cy="1073.26" rx="17.05" ry="23.59" transform="translate(-45.44 1976.92) rotate(-30)"/><ellipse class="cls-3" cx="3619.23" cy="1053.95" rx="20.25" ry="21.32" transform="translate(-42.09 1950.82) rotate(-30)"/><path class="cls-8" d="M3901.54,972.76c-33.28,71.55-72.08,144.06-89.35,172.2a122,122,0,0,1-207.91-127.55c35.23-57.41,307.18-227.35,345.84-203.64"/><polyline class="cls-8" points="3607.62 1012.86 3634.95 1000.46 3662.84 987.82 3690.19 975.41 3718.08 962.77 3762.68 942.53"/><polyline class="cls-8" points="3592.03 1051.58 3617.75 1039.91 3645.1 1027.51 3672.98 1014.87 3700.32 1002.47 3728.21 989.82 3765.86 972.75"/><polyline class="cls-8" points="3588.73 1083.13 3616.57 1070.51 3643.91 1058.11 3671.79 1045.46 3699.14 1033.06 3727.03 1020.42 3768.19 1001.74"/><polyline class="cls-8" points="3591.58 1111.41 3615.4 1100.51 3642.75 1088.12 3670.63 1075.46 3697.97 1063.07 3725.86 1050.41 3753.2 1038.02 3781.1 1025.37 3808.43 1012.96 3902.44 971.08"/><polyline class="cls-8" points="3600.06 1137.54 3641.56 1118.71 3669.45 1106.07 3696.79 1093.67 3724.67 1081.01 3752.02 1068.62 3779.91 1055.96 3807.25 1043.56 3837.13 1030.01 3883.53 1008.98"/><line class="cls-8" x1="3865.58" y1="1046.59" x2="3615.4" y2="1159.79"/><line class="cls-8" x1="3845.19" y1="1085.89" x2="3638.37" y2="1179.43"/><line class="cls-8" x1="3822.61" y1="1125.88" x2="3669.33" y2="1195.4"/><line class="cls-8" x1="3606.63" y1="1013.91" x2="3622.84" y2="1168.29"/><line class="cls-8" x1="3630.92" y1="988.23" x2="3652.05" y2="1189.43"/><line class="cls-8" x1="3656.22" y1="966.98" x2="3680.7" y2="1200.14"/><line class="cls-8" x1="3681.23" y1="948.09" x2="3708" y2="1203.16"/><line class="cls-8" x1="3706.83" y1="929.79" x2="3735.21" y2="1200.12"/><line class="cls-8" x1="3732.04" y1="912.82" x2="3761.25" y2="1191.04"/><line class="cls-8" x1="3757.83" y1="896.29" x2="3787.02" y2="1174.32"/><polyline class="cls-8" points="3811.11 1146.68 3808.91 1125.78 3805.78 1095.92 3802.58 1065.46 3797.59 1017.88"/><polyline class="cls-8" points="3836.07 1102.53 3833.42 1078.24 3830.22 1047.78 3825.76 1005.24"/><polyline class="cls-8" points="3861.72 1051.93 3858.94 1029.4 3855.16 993.32"/><line class="cls-8" x1="3886.17" y1="1003.9" x2="3883.53" y2="982.74"/></g><g id="HEAD"><g id="NECK"><path class="cls-5" d="M4161.07,578.22l13.48,1.92L4117,681.48l-106.73-106,.33-.05c15.55-5.09,41.42-15.55,51.48-34.23l21.51-43.94L4133.42,522v24.33A32.19,32.19,0,0,0,4161.07,578.22Z"/><path class="cls-6" d="M4020.32,587.79l-9.74-12.36c15.55-5.09,41.42-16.55,51.48-35.23l21.51-42.9L4133.42,522v23.34Z"/></g><path id="FACE" class="cls-5" d="M4159.74,496l-2,.31a8.09,8.09,0,0,0-6.84,8v9.77a13,13,0,0,1-13,13h-20.59a32.31,32.31,0,0,1-31.83-26.77c-.13-.76-.23-1.52-.3-2.29h-10.35a16,16,0,1,1,0-32H4087c40.79,2.82,67.55-26.4,67.55-26.4,1.58,23.49,4.41,36.48,10,46.95A6.5,6.5,0,0,1,4159.74,496Z"/><path id="EAR" class="cls-11" d="M4082.19,484.7a11.08,11.08,0,0,0-11.07-11.08"/><g id="EYE"><path class="cls-11" d="M4148.5,461.8s-11.86,0-18.23,8.74"/><ellipse class="cls-6" cx="4142.75" cy="478.54" rx="2.48" ry="4.76"/></g></g></g><g id="_3_CHARACTER" data-name="3 CHARACTER"><ellipse id="SHADOW-2" data-name="SHADOW" class="cls-1" cx="2896.94" cy="2013.95" rx="414.48" ry="15.6"/><path id="BACKPACK" class="cls-12" d="M2695.8,1039.05s-14.27,82.25,125.83,64.14l6.77-89.9Z"/><g id="HOVERBOARD"><ellipse class="cls-7" cx="3132.9" cy="1811.85" rx="137.04" ry="196.71"/><ellipse class="cls-2" cx="3128.18" cy="1822.77" rx="96.71" ry="154.58"/><ellipse class="cls-8" cx="3112.88" cy="1811.85" rx="96.71" ry="154.58"/></g><g id="LEGS-2" data-name="LEGS"><g id="SHOES"><path class="cls-6" d="M2845.81,1830.5l-6.13,15.76a37.57,37.57,0,0,0,35,51.19h230.12s5.15-17.93-26.26-29.46c-23.25-8.53-41.1-22.85-36.71-50.66Z"/><path class="cls-6" d="M2693.66,1830.5l-6.13,15.76a37.58,37.58,0,0,0,35,51.19h232.6s-42.8-33.48-41.9-67Z"/><path class="cls-13" d="M2955.15,1897.45s-42.8-33.48-41.9-67"/></g><g id="PANTS"><path id="PANTS-2" data-name="PANTS" class="cls-14" d="M2826.4,1019.31c-41.35,553.74-132.74,811.19-132.74,811.19s212.11,11,348.18-13.17c0,0,126.21-332.08,140.47-850.88Z"/><g id="PATTERN"><path class="cls-3" d="M2727.94,1706.75v125.07l-3.28-.1V1720.29q1.46-5.93,3-12.19Z"/><path class="cls-3" d="M2760.58,1550.85v281.73l-3.28,0v-264.1Q2758.93,1559.79,2760.58,1550.85Z"/><path class="cls-3" d="M2793.22,1343.23V1833h-3.28V1367.35c.84-6,1.66-12.09,2.49-18.25.14-1.08.29-2.18.45-3.27C2793,1345,2793.09,1344.09,2793.22,1343.23Z"/><path class="cls-3" d="M2825.84,1026.65v806.27l-3.27,0V1068.13q.53-6.36,1-12.76l.27-3.28Q2824.88,1039.49,2825.84,1026.65Z"/><path class="cls-3" d="M2858.48,1014.55v817.9l-3.27.07V1015Z"/><path class="cls-3" d="M2891.12,1009.69v821.79l-3.27.13V1010.19Z"/><path class="cls-3" d="M2923.75,1004.85V1830l-3.28.18V1005.35Z"/><path class="cls-3" d="M2956.39,1000v827.74l-3.28.26V1000.49Z"/><path class="cls-3" d="M2989,995.16V1824.7l-3.28.35V995.64Z"/><path class="cls-3" d="M3021.66,990.31v830.28l-3.28.47V990.8Z"/><path class="cls-3" d="M3054.3,985.47v795.6q-1.74,5.37-3.28,10V986Z"/><path class="cls-3" d="M3086.94,980.62v687.55l-1.05,4c-.29,1.1-.58,2.2-.86,3.28-.46,1.75-.92,3.47-1.37,5.18V981.11Z"/><path class="cls-3" d="M3119.57,975.78v550.66q-1.56,7.69-3.13,15.2l-.15.74V976.26Z"/><path class="cls-3" d="M3152.21,970.92V1334c-.55,4-1.1,7.9-1.65,11.83-.16,1.09-.32,2.19-.47,3.27-.38,2.7-.78,5.4-1.16,8.08V971.42Z"/><path class="cls-3" d="M3182.31,966.45q-.27,10.23-.63,20.36c0,1.09-.07,2.19-.1,3.28a1.48,1.48,0,0,1,0,.21V966.56Z"/><path class="cls-3" d="M3047.05,1802.73c-.39,1.16-.77,2.25-1.12,3.28H2701.5l1-3.28Z"/><path class="cls-3" d="M3057.81,1770.1c-.35,1.11-.69,2.21-1,3.28H2710.89c.29-1.08.59-2.17.9-3.28Z"/><path class="cls-3" d="M3067.77,1737.46c-.32,1.1-.65,2.2-1,3.28H2719.53c.29-1.08.56-2.18.84-3.28Z"/><path class="cls-3" d="M3077.1,1704.82c-.3,1.1-.61,2.2-.91,3.28H2727.61l.33-1.35v-1.93Z"/><path class="cls-3" d="M3085.89,1672.19c-.29,1.1-.58,2.2-.86,3.28H2735.2c.24-1.08.48-2.18.73-3.28Z"/><path class="cls-3" d="M3094.18,1639.55c-.27,1.1-.53,2.2-.8,3.28h-351c.23-1.08.47-2.18.7-3.28Z"/><path class="cls-3" d="M3102,1606.91c-.25,1.09-.51,2.19-.76,3.28H2749.13c.22-1.09.45-2.19.67-3.28Z"/><path class="cls-3" d="M3109.44,1574.27c-.24,1.11-.48,2.2-.72,3.28H2755.56c.21-1.08.42-2.17.62-3.28Z"/><path class="cls-3" d="M3116.44,1541.64l-.15.74-.54,2.54H2761.66c.2-1.08.4-2.17.6-3.28Z"/><path class="cls-3" d="M3123,1509c-.2,1.1-.42,2.2-.64,3.28H2767.46l.57-3.28Z"/><path class="cls-3" d="M3129.27,1476.37c-.21,1.1-.4,2.19-.6,3.28H2773c.18-1.09.36-2.18.53-3.28Z"/><path class="cls-3" d="M3135.13,1443.73c-.2,1.1-.38,2.19-.57,3.28H2778.2c.18-1.09.35-2.17.51-3.28Z"/><path class="cls-3" d="M3140.62,1411.1c-.18,1.09-.36,2.18-.53,3.27h-356.9c.17-1.09.33-2.18.49-3.27Z"/><path class="cls-3" d="M3145.76,1378.46c-.16,1.09-.33,2.18-.5,3.27H2787.93c.15-1.09.3-2.18.47-3.27Z"/><path class="cls-3" d="M3150.56,1345.83c-.16,1.09-.32,2.19-.47,3.27H2792.43c.14-1.08.29-2.18.45-3.27Z"/><path class="cls-3" d="M3155,1313.19l-.43,3.28H2796.7c.14-1.1.29-2.18.42-3.28Z"/><path class="cls-3" d="M3159.12,1280.54q-.18,1.64-.39,3.27h-358c.12-1.09.26-2.18.39-3.27Z"/><path class="cls-3" d="M3162.93,1247.91c-.13,1.09-.25,2.18-.37,3.28h-358c.13-1.1.25-2.19.38-3.28Z"/><path class="cls-3" d="M3166.38,1215.27c-.11,1.09-.22,2.18-.34,3.28h-357.8l.36-3.28Z"/><path class="cls-3" d="M3169.52,1182.63c-.1,1.09-.2,2.18-.31,3.28H2811.68c.12-1.1.23-2.19.34-3.28Z"/><path class="cls-3" d="M3172.34,1150l-.27,3.28H2814.94l.33-3.28Z"/><path class="cls-3" d="M3174.84,1117.36c-.08,1.09-.17,2.19-.24,3.28H2818c.1-1.09.2-2.19.29-3.28Z"/><path class="cls-3" d="M3177,1084.72c-.07,1.09-.14,2.19-.2,3.28H2820.89c.1-1.09.19-2.19.29-3.28Z"/><path class="cls-3" d="M3178.88,1052.09c-.05,1.09-.11,2.19-.17,3.28H2823.6l.27-3.28Z"/><path class="cls-3" d="M3180.44,1019.45c0,1.09-.09,2.19-.14,3.28H2825.84v-3.28Z"/><path class="cls-3" d="M3181.68,986.81c0,1.09-.07,2.19-.1,3.28H3023.16l22.07-3.28Z"/></g><path class="cls-13" d="M2913.25,1830.5c.2-40.6,120.91-707.83,126.4-714.41s27.43-12.07,27.43-12.07"/><polygon id="SHADOW-3" data-name="SHADOW" class="cls-6" points="3182.32 966.45 2825.3 1019.31 2819.06 1105.67 3182.32 977.82 3182.32 966.45"/></g></g><g id="HOVERBOARD-2" data-name="HOVERBOARD"><rect class="cls-7" x="2673.66" y="1897.45" width="431.15" height="28.81" transform="translate(5778.48 3823.7) rotate(-180)"/><ellipse class="cls-7" cx="2702.1" cy="1811.85" rx="137.04" ry="196.71"/><ellipse class="cls-2" cx="2693.01" cy="1822.77" rx="96.71" ry="154.58"/><ellipse class="cls-8" cx="2679.9" cy="1811.85" rx="96.71" ry="154.58"/></g><g id="HOODY"><path class="cls-10" d="M3182.31,966.45V895s20.67,136.28,128.4,128.4c130.88-9.58,133.28-280.7-136.05-450.23A131.84,131.84,0,0,0,3121.08,554l-95.15-7.76L2812.29,579a150.76,150.76,0,0,0-108.11,79.22c-43,83.24-103.24,225.75-70,319.85,24.8,70.27,107.7,91.64,192.21,62Z"/><line class="cls-8" x1="3182.31" y1="894.96" x2="3182.31" y2="822.39"/><line class="cls-8" x1="2845.99" y1="812.03" x2="2733.47" y2="858.67"/><path class="cls-8" d="M2826.22,1041c28.34-9.24,130.69-83.07,162.35-171.79"/></g><g id="BACKPACK-2" data-name="BACKPACK"><path class="cls-12" d="M2996.42,802.42c2.54-133.5-80.47-237.13-109.11-236.66l-90.35-.08a23.5,23.5,0,0,0-23.52,23.5h0c23.49-6.07,117.17-34.51,155.07,230.6Z"/><path class="cls-12" d="M3025.93,547.33s126.2,22.34,156.38,272.48c0,0,43.43-142.89-37-254.83a39.92,39.92,0,0,0-32-16.67Z"/></g><g id="ARMS"><g id="RIGHT-2" data-name="RIGHT"><ellipse class="cls-6" cx="3264.52" cy="807.15" rx="76.44" ry="46.37" transform="translate(-86.94 530.97) rotate(-9.18)"/><path class="cls-5" d="M3321.43,832.27l-3.66,2.76c-11.94,8.48-27.85,15-45.86,17.89-25.38,4.1-49.06.13-64.62-9.31l-8.88-22.72-16.08,1.5a19.19,19.19,0,0,1-19-10.67L3124,731.3a21.82,21.82,0,0,1,16.79-31.07l70.72-9.4a46,46,0,0,1,46.6,23.81Z"/><path class="cls-8" d="M3137.76,753.09A21.82,21.82,0,0,1,3154.55,722l39.12-5.2"/><path class="cls-8" d="M3151,780.65a21.82,21.82,0,0,1,16.79-31.07l39.12-5.2"/><path class="cls-8" d="M3164.49,807.37a21.82,21.82,0,0,1,16.79-31.07l39.11-5.2"/></g><g id="LEFT-2" data-name="LEFT"><ellipse class="cls-6" cx="2915.27" cy="842.6" rx="32.56" ry="79.52" transform="translate(1147.29 3308.98) rotate(-70.49)"/><path class="cls-5" d="M2990.49,867.74c-8.4,5.9-29.29,6.18-52.23,2-26.49-4.89-48.1-16.83-49.49-27.2l.05-2.4h0l1.47-69.42a46,46,0,0,1,30.65-42.41l67.25-23.83a21.82,21.82,0,0,1,29.09,20l1.59,89.51a19.17,19.17,0,0,1-12.06,18.15l-15,6Z"/><path class="cls-8" d="M3017.89,751.07a21.81,21.81,0,0,0-29.09-20l-37.2,13.17"/><path class="cls-8" d="M3018.15,780.65a21.81,21.81,0,0,0-29.09-20l-37.19,13.17"/><path class="cls-8" d="M3018.78,809.12a21.81,21.81,0,0,0-29.09-20l-37.2,13.17"/></g></g><g id="HEAD-2" data-name="HEAD"><g id="NECK-2" data-name="NECK"><path class="cls-5" d="M2936.35,492.76v64.69s43,59.61,99,43.76c42-11.88-9.41-59.34-9.41-59.34V492.76Z"/><path class="cls-6" d="M3025.93,492.76v49.11l-73.68,33s-15.9-14.17-15.9-17.4V492.76Z"/></g><path id="HAIR-2" data-name="HAIR" class="cls-6" d="M2929.83,456.44l23.81-.87a29.78,29.78,0,0,1,9.69-11.92,29.53,29.53,0,0,1,17.46-5.67h41.08a25.64,25.64,0,0,1,4.66.42,21.85,21.85,0,0,1,2.66.62,17.44,17.44,0,0,0,2.61.2c11.67,0,21.13-11.7,21.13-26.14s-9.46-26.15-21.13-26.15a19,19,0,0,0-14.25,6.87c-4-8.52-11.34-14.23-19.73-14.23-9.3,0-17.31,7-20.92,17.12a21.45,21.45,0,0,0-15.15-6.42c-9.82,0-18.21,6.92-21.49,16.68,0,0-18.73-7.86-27,3.53S2929.83,456.44,2929.83,456.44Z"/><path id="HEAD-3" data-name="HEAD" class="cls-5" d="M3048.31,456.05v45a25.91,25.91,0,0,1-25.9,25.9h-36.59a34.77,34.77,0,0,1-34.76-34.12H2934a18.65,18.65,0,0,1,0-37.3h18A24,24,0,0,1,2975.11,438h55.13A18.07,18.07,0,0,1,3048.31,456.05Z"/><path id="EAR-2" data-name="EAR" class="cls-8" d="M2946.52,478.86a13.7,13.7,0,0,0-13.7-13.69"/><g id="FACE-2" data-name="FACE"><path class="cls-8" d="M3048,460.47s-14.37-3.49-22.09,7.12c-5.55,7.63-3.28,30.49-3.28,30.49"/><path class="cls-8" d="M3000.16,460.74s-14.09-1.74-25.09,1.93"/><ellipse class="cls-6" cx="3036.44" cy="479.59" rx="2.8" ry="5.37"/><ellipse class="cls-6" cx="2990.2" cy="479.59" rx="2.8" ry="5.37"/></g></g></g><g id="_2_CHARACTER" data-name="2 CHARACTER"><g id="BICYCLE"><circle class="cls-8" cx="1329.78" cy="1538.58" r="298.91"/><path class="cls-8" d="M1152.6,1822.55c-91.9-53.16-153.73-152.52-153.73-266.32"/><circle class="cls-8" cx="2258.84" cy="1538.58" r="298.91"/><path class="cls-8" d="M2422.6,1251.26c106.76,57.08,174.66,174.13,163,302.28"/><path class="cls-8" d="M2258.84,1538.58,2084.52,1012a22.28,22.28,0,0,1,21.15-29.28h162.88a80.17,80.17,0,0,1,80.17,80.18h0a80.18,80.18,0,0,1-80.18,80.17h-28.67a28.06,28.06,0,0,1-23.3-12.39"/><circle class="cls-7" cx="2258.52" cy="1539.36" r="12.43"/><path class="cls-8" d="M1534.4,1207.62l-205.35,330.91H1859.3l160.72-259a152.13,152.13,0,0,1,129.25-71.91Z"/><path class="cls-8" d="M2099.53,1054.68a152.11,152.11,0,0,1,129.25-71.91"/><rect class="cls-8" x="1634.3" y="1652.84" width="152.34" height="22.57"/><rect class="cls-8" x="1435.85" y="1118.04" width="195.95" height="33" rx="15.06"/><line class="cls-8" x1="1533.82" y1="1207.62" x2="1533.82" y2="1151.04"/><circle class="cls-7" cx="1329.05" cy="1538.53" r="12.43"/></g><g id="MAN"><g id="LEG"><path class="cls-6" d="M1782.25,1538.53H1612a37.77,37.77,0,0,1-34.14-53.94L1751.45,1118H1514.8a87.7,87.7,0,0,1-79-49.49l192.84-146.81h274.73c97.89,0,160,104.93,112.85,190.73Z"/><g id="SHOES-2" data-name="SHOES"><path class="cls-14" d="M1782.25,1538.53c-5.5,13.44-22.53,69.91,7.69,82.72,28.6,12.12,25.85,28.59,25.85,28.59H1628.26a27.08,27.08,0,0,1-25.59-35.91l26-75.35Z"/><path class="cls-15" d="M1744.69,1559.58l33.7,0a7,7,0,0,1,7,7h0a7,7,0,0,1-7,7h-5.07"/><path class="cls-15" d="M1744.69,1573.58l33.7,0a7,7,0,0,1,7,7h0a7,7,0,0,1-7,7h-5.07"/><path class="cls-4" d="M1815.79,1649.85H1628.26a27.08,27.08,0,0,1-25.6-35.92l1.79-5.19a27.1,27.1,0,0,0,26.81,23.11h175.91C1817.23,1641.21,1815.79,1649.85,1815.79,1649.85Z"/></g></g><g id="ARM"><path class="cls-10" d="M2272.67,1005.48s61.75,5.5,70.91-26.4-3.07-77-21-88c-3.82-2.34-74.22-4-74.22-4L2201.88,990c57.2.67,79.08-5.6,79.08-5.6S2267.39,987.15,2272.67,1005.48Z"/><path class="cls-16" d="M2318.59,1000.46a26.87,26.87,0,0,0,7.59-12.26c3.42-11.91,3.86-24.65,2.13-37.78"/><path class="cls-16" d="M2201.88,990l79.47-6.58a17.67,17.67,0,0,0,16.22-17.61V953.77"/></g><g id="HEAD-4" data-name="HEAD"><polygon id="NECK-3" data-name="NECK" class="cls-10" points="1917.17 581.27 1901.84 622.3 1876.17 621.88 1775.06 620.37 1844.72 528.84 1917.17 581.27"/><path id="HEAD-5" data-name="HEAD" class="cls-10" d="M1876.47,528.84l7.67,45.48a26.36,26.36,0,0,0,26,22h38.56A15.39,15.39,0,0,0,1964,579.51l-1.76-19.14h5.88a5.62,5.62,0,0,0,5.41-7.14L1961.17,509Z"/><g id="EAR-3" data-name="EAR"><path class="cls-10" d="M1861.93,528.84h21.32a0,0,0,0,1,0,0v39.23a0,0,0,0,1,0,0h-21.32A17.91,17.91,0,0,1,1844,550.16v-3.41a17.91,17.91,0,0,1,17.91-17.91Z"/><path class="cls-8" d="M1845.36,550.11h0c0,10.84,12.1,20.45,22.93,20.45h21.85"/><path class="cls-8" d="M1873.62,551.47a12,12,0,0,0-12-12"/></g><g id="EYE-2" data-name="EYE"><ellipse class="cls-6" cx="1935.87" cy="543.18" rx="3.3" ry="4.44"/><path class="cls-8" d="M1920.47,528.84s11-4.77,18.7-5.13"/></g><g id="CAP"><path class="cls-17" d="M1837.26,535.76l1.48-6a82,82,0,0,1,73.83-62.31l18.37-1.3a25.43,25.43,0,0,1,27.46,21.67l2.77,19.06Z"/><line class="cls-8" x1="1837.26" y1="535.76" x2="2010.3" y2="496.03"/></g><path id="BEARD" class="cls-6" d="M1901.84,522.71c-10.5,23.92,1.5,38.92,5.12,41.64,10.32,7.73,46.77-1.63,55.31-4,0,0,7.31,49.78-1,51.07-15.33,2.38-69.67-14.48-77-28.41-2.44-4.6.74-20.84.26-32.12-.35-8.57-1.28-22.07-8.06-22.07Z"/></g><g id="HOODY-2" data-name="HOODY"><path class="cls-18" d="M1901.84,622.3,1729,541.76a34.06,34.06,0,0,0-43.9,13.88l-46.6,81c-9.44,18.73,7,40.06,27.52,35.71Z"/><path class="cls-18" d="M1777,620.37h104.23A111.7,111.7,0,0,1,1980.43,681c34.76,67.36,113,169.75,273.69,192.91l-52.24,117s-172.07,70.59-364.56-69.1h-92.24a345.06,345.06,0,0,0-209,70.5l-100.23,76.31s-66.09-138.25,78.8-291.76c50.7-53.72,92.71-89.19,125.34-112.52A235.51,235.51,0,0,1,1777,620.37Z"/><path class="cls-13" d="M1847.78,663.81c45.52,88.2,167,242.29,377.31,272.61"/><path class="cls-13" d="M1832.9,668.65c43.81,90.29,172.95,250.23,385.64,280.88"/><path class="cls-8" d="M1640,663.23a235.5,235.5,0,0,1,137-43.89h122.89"/><path class="cls-8" d="M1839,925.06c-30-20.67-77.08-88.31-77.08-88.31"/><path class="cls-8" d="M2252.05,875.93l-51.21,115.94s-172.07,70.6-364.56-69.09"/></g></g></g><g id="_1_CHARACTER" data-name="1 CHARACTER"><ellipse id="SHADOW-4" data-name="SHADOW" class="cls-1" cx="475.22" cy="2019.56" rx="475.22" ry="15.6"/><g id="BLOUSE"><path class="cls-12" d="M521.36,657.49,746,618.43A104.89,104.89,0,0,1,865.45,695.2c16.35,62.45,42.66,145,90.16,145,71.28,0,165.4-154,165.4-154l110.85,72.48s-121.21,263.84-270.08,269.76c-127.48,5.08-156.6-95-156.6-95v58L448,1061.83s-38.68,149.57-88,197.09L228.94,1207c46.17-73.14,131.45-310.62,171.85-443A153.55,153.55,0,0,1,521.36,657.49Z"/><path class="cls-18" d="M805.19,990.86v54.84c-36.7,11.83-87.73,23.65-145.3,29.41-57.73,5.76-110.67,7.65-149.42,5.5s-63.39-8.36-64.26-18.79c-1.14-13.72,26-30,69.85-43.77,35.84-11.25,82.87-20.86,134.83-26C710.71,986,765.89,986,805.19,990.86Z"/><line class="cls-19" x1="447.98" y1="1060.94" x2="505.8" y2="891.21"/><line class="cls-19" x1="805.18" y1="933.37" x2="805.18" y2="801.31"/><path class="cls-18" d="M363.25,1258c-5.31,14.38-41.08,14.73-78.8.8s-64-36.88-58.67-51.26,42.84-17.38,80.56-3.45S368.56,1243.64,363.25,1258Z"/></g><g id="HANDS"><g id="RIGHT-3" data-name="RIGHT"><path class="cls-20" d="M1113.79,690.25c5.66-10.89,68.52-86.76,91-86.23s-17.78,32.54,5.34,33.12c21.37.53,90-77.12,101-45.94,18.7,53.42-47.54,154.91-86.7,175.8C1191.81,784.34,1091.74,732.67,1113.79,690.25Z"/><path class="cls-8" d="M1301.66,586.3s-2.73,25.83-62.43,61.32"/><path class="cls-8" d="M1310,596.25s-1.07,34.12-60.77,69.61"/><path class="cls-8" d="M1310,596.25s19.1,48.81-49.16,88.68"/><path class="cls-8" d="M1183.66,679s5,30.37-8.37,54"/></g><g id="LEFT-3" data-name="LEFT"><path class="cls-20" d="M349.42,1266.87s-69.28,80.24-165.64,70.78c-83.68-8.21-78.6-64.53-66.08-64.91,51.61-1.6,99.34-29.44,118.31-56C248.66,1199,349.42,1222.08,349.42,1266.87Z"/><path class="cls-8" d="M113.86,1294s48.57,14.31,85.41-12.57"/><path class="cls-8" d="M129.77,1316.08s43.83,10.65,79.46-9"/><path class="cls-8" d="M151.37,1328.09s43.12,17.64,76.52-5.59"/></g></g><g id="LEGS-3" data-name="LEGS"><g id="LEGS-4" data-name="LEGS"><path class="cls-20" d="M805.19,990.86v825H631.84V1430.49c-33.59,166-337.65,317.11-337.65,317.11l-85-151.1s230.5-95.92,277.43-337.59c10.37-53.42,18.47-123.81,23.81-178.3,2.48-25.43,4.36-47.4,5.59-62.56,35.84-11.25,82.87-20.86,134.83-26C710.71,986,765.89,986,805.19,990.86Z"/><path class="cls-8" d="M558.69,1551.56c-18-14.53-20.57-44.17-5.3-68.71,16.29-26.18,46.78-36.65,68.09-23.39"/><path class="cls-8" d="M802.23,1557.08c-23-1.93-41.84-25-43-53.85-1.25-30.8,18.08-56.6,43.16-57.61"/></g><g id="SHORTS"><path class="cls-14" d="M805.19,990.86v283.3c-208.81,32.86-318.53-15.25-318.53-15.25,10.37-53.42,18.47-123.81,23.81-178.3,2.48-25.43,4.36-47.4,5.59-62.56,35.84-11.25,82.87-20.86,134.83-26C710.71,986,765.89,986,805.19,990.86Z"/><path class="cls-13" d="M631.84,1439.33c51.91-145.18,59-290.36,59-290.36"/><path class="cls-21" d="M531.88,1269.1c13.65-70.3,24.3-162.94,31.33-234.65"/><path class="cls-21" d="M518.39,1266.45c13.65-70.31,24.3-162.94,31.33-234.65"/><path class="cls-6" d="M805.19,990.86v54.84c-36.7,11.83-87.73,23.65-145.3,29.41-57.73,5.76-110.67,7.65-149.42,5.5,2.48-25.43,4.36-47.4,5.59-62.56,35.84-11.25,82.87-20.86,134.83-26C710.71,986,765.89,986,805.19,990.86Z"/></g><g id="ROLLER_SKATES" data-name="ROLLER SKATES"><g id="RIGHT-4" data-name="RIGHT"><circle class="cls-7" cx="650.31" cy="1990.08" r="18.48"/><circle class="cls-7" cx="717.18" cy="1990.08" r="18.48"/><circle class="cls-7" cx="784.05" cy="1990.08" r="18.48"/><circle class="cls-7" cx="850.92" cy="1990.08" r="18.48"/><path class="cls-18" d="M869.4,1949v12.92H669.11a37.28,37.28,0,0,1-37.27-37.28V1815.86H805.19c0,23-.79,80.41,51.94,111.59A25,25,0,0,1,869.4,1949Z"/><path class="cls-8" d="M807.93,1837.84c8.54,1.16,13.33,3,13.33,6.14,0,4.21-15,5.86-41.28,5.86"/><path class="cls-8" d="M812.09,1863.34c8.88,1.07,13.59,3.87,13.59,7.16,0,4.21-19.38,5-45.7,5"/><path class="cls-8" d="M780,1901.58s56,3.91,56-7c0-4.65-8.14-6.31-14.73-6.89"/><rect class="cls-4" x="631.84" y="1781.99" width="173.35" height="33.87"/></g><g id="LEFT-4" data-name="LEFT"><circle class="cls-7" cx="66.42" cy="1697.99" r="18.48"/><circle class="cls-7" cx="99.2" cy="1756.27" r="18.48"/><circle class="cls-7" cx="131.97" cy="1814.56" r="18.48"/><circle class="cls-7" cx="164.75" cy="1872.85" r="18.48"/><path class="cls-18" d="M209.61,1868.82l-11.26,6.33-98.17-174.57a37.29,37.29,0,0,1,14.23-50.77l94.82-53.31,85,151.09c-20,11.27-70.47,38.73-71.81,100A25,25,0,0,1,209.61,1868.82Z"/><path class="cls-8" d="M275.11,1761c3.18,8,3.6,14.28.85,15.83-3.68,2.06-12.44-10.17-25.34-33.12"/><path class="cls-8" d="M253.7,1779.28c4.33,9.37,5,15.75,1.85,17.51-3.67,2.06-14.6-14-27.51-37"/><path class="cls-8" d="M204.18,1773.52s24.06,49.88,33.6,44.51c4.24-2.38,1.25-9.72-1.6-15.57"/><polygon class="cls-4" points="209.23 1596.5 250.62 1575.05 338.29 1724.95 295.08 1748.48 209.23 1596.5"/></g></g></g><g id="HEAD-6" data-name="HEAD"><g id="HAIR-3" data-name="HAIR"><path class="cls-10" d="M699.12,524.93c0,32.18-30.51,54.73-62.83,54.73a58.48,58.48,0,0,1-56.57-43.31A54,54,0,0,1,486.53,550a94.42,94.42,0,1,1-8.38-50.23,54,54,0,0,1,103,2.2,58.51,58.51,0,0,1,55.19-38.86C668.61,463.13,699.12,492.75,699.12,524.93Z"/><circle class="cls-10" cx="247.16" cy="548.97" r="24.64"/><path class="cls-6" d="M580,543.19a3,3,0,0,1-3-3v-42a3,3,0,0,1,6,0v42A3,3,0,0,1,580,543.19Z"/></g><g id="NECK-4" data-name="NECK"><path class="cls-20" d="M609.32,574.13l-25.68,72s9,30.9,61.78,28.16,46.93-46.54,46.93-46.54v-27L628,573.31Z"/><path class="cls-6" d="M692.35,610.15,586.21,651.5a25,25,0,0,1-2.57-5.36l25.69-72L628,573.3l64.29,27.15v.34Z"/></g><g id="HEAD-7" data-name="HEAD"><path class="cls-20" d="M672.84,610.56c-19.57.86-38.58-14.43-46.13-36.41H608.5a18.72,18.72,0,1,1,0-37.44h17s0,0,0-.06q.81.06,1.71.06c23.66,0,49.8-25.36,49.83-37,19.44,5.18,27.63,26.12,28.81,52.86C707.23,583.5,697.33,609.48,672.84,610.56Z"/><path class="cls-8" d="M620.14,557.78a12.23,12.23,0,0,0-12.22-12.23"/><ellipse class="cls-6" cx="657.94" cy="560.88" rx="3.54" ry="5.3"/><ellipse class="cls-6" cx="695.95" cy="560.88" rx="3.24" ry="4.86"/><path class="cls-8" d="M643.08,546.32s7.81-8.08,24-6.07"/><path class="cls-8" d="M705.5,538.24s-23.42,0-22.64,39.66"/></g></g></g></g></g></svg>