<svg xmlns="http://www.w3.org/2000/svg" viewBox="0 0 4507.39 2810.43"><defs><style>.cls-1{fill:#e5f1ef;}.cls-2{fill:#c8d9d2;}.cls-3{fill:#907b00;}.cls-4{fill:#b59b00;}.cls-12,.cls-14,.cls-15,.cls-16,.cls-19,.cls-20,.cls-21,.cls-22,.cls-23,.cls-5,.cls-8{fill:none;}.cls-16,.cls-17,.cls-19,.cls-20,.cls-21,.cls-22,.cls-23,.cls-5{stroke:#423c52;}.cls-15,.cls-17,.cls-19,.cls-20,.cls-22,.cls-23,.cls-5,.cls-8{stroke-linecap:round;}.cls-12,.cls-14,.cls-15,.cls-16,.cls-17,.cls-19,.cls-20,.cls-21,.cls-22,.cls-23,.cls-5,.cls-8{stroke-miterlimit:10;}.cls-12,.cls-14,.cls-16,.cls-17,.cls-19,.cls-20,.cls-5,.cls-8{stroke-width:5px;}.cls-6{fill:#ffdb00;}.cls-7{fill:#423c52;}.cls-12,.cls-15,.cls-8{stroke:#fff;}.cls-17,.cls-9{fill:#fff;}.cls-10{fill:#a0505a;}.cls-11{fill:#fe552f;}.cls-13{fill:#ff7500;}.cls-14{stroke:#fe552f;}.cls-15,.cls-23{stroke-width:4px;}.cls-18{fill:#eb7500;}.cls-19{stroke-dasharray:17.12 17.12;}.cls-20{stroke-dasharray:16.83 16.83;}.cls-21,.cls-22{stroke-width:3px;}</style></defs><g id="Layer_2" data-name="Layer 2"><g id="Слой_1" data-name="Слой 1"><g id="CLOUDS"><path class="cls-1" d="M4148.29,623.2c33.16,0,51.28-39,29.68-64.15-18.39-21.41-46.63-34.74-77.62-41.5-54.13-11.81-120,25.48-135.94,34.86-4.12-73.77-68.42-132.34-147.15-132.34-3.2,0-6.39.1-9.54.3-20.15-105.66-120.71-186-241.73-186-135.53,0-245.4,100.74-245.4,225a206.65,206.65,0,0,0,2,28.84,149.91,149.91,0,0,0-18-1.1c-53.81,0-115.6,33.3-122.89,86.8,0,0-290.81-78.86-292.49,50.92Z"/><path class="cls-1" d="M409.3,398h958.79c-1.85-9.2-21-107.73-257.06-18,0,0,11.66-49-59.16-27.25s-45.6-75.49-107.81-91.06c-37.09-9.28-58.16,6-73,23-7.15-97.18-92.7-173.91-197.19-173.91-109.17,0-197.66,83.76-197.66,187.1a180.18,180.18,0,0,0,1,19C466,303,441.32,290.58,407.6,291.38c-.77,0-1.54.05-2.3.1C337,295.46,340.84,398,409.3,398Z"/></g><g id="WIND_TURBINES" data-name="WIND TURBINES"><path class="cls-1" d="M1171.65,1617.84,1206,452.71a5.61,5.61,0,1,1,11.22,0l33.41,1165.12Z"/><path class="cls-2" d="M1255.73,233.65c-6,86.74-21.74,163-35.78,209.09a5.93,5.93,0,0,1-11.52-.79c-7.58-47.36-12.76-124.5-6.78-211.21,7-102.23,27.68-189.93,43-230.74C1254.34,42.53,1262.78,131.42,1255.73,233.65Z"/><path class="cls-2" d="M1007.1,542.27c70.77-41.36,138.91-70.41,185-85.62,7.9-2.61,13.67,7.46,7.44,13-30.42,26.87-87.79,70.9-167.54,117.51-88.47,51.7-169.25,85.35-211.63,95.6C850.12,650.83,918.63,594,1007.1,542.27Z"/><path class="cls-2" d="M1404.06,521.8c82,42.68,149,94.31,176.63,122.84-39.24-6.28-114.12-35.49-196.18-78.17-66.42-34.55-122.91-70.32-156.71-97.82-6-4.84-1.19-14.37,6.26-12.57C1276,466.2,1337.66,487.26,1404.06,521.8Z"/><circle class="cls-1" cx="1212.98" cy="451.95" r="23.89"/><path class="cls-1" d="M1734.76,1698.24l30-1016.25a4.89,4.89,0,1,1,9.78,0l29.15,1016.25Z"/><path class="cls-2" d="M1832.73,532C1815.61,593.79,1793,646.58,1776,677.77a4.37,4.37,0,0,1-8.21-2.27c1.51-35.33,9.16-91.82,26.29-153.58,20.18-72.8,48-133.11,65.16-160.32C1859.94,393.74,1852.92,459.21,1832.73,532Z"/><path class="cls-2" d="M1607.56,718.25c57.23-19.43,110.74-30.36,146.3-34.54a5.62,5.62,0,0,1,3.46,10.46c-25.94,14.92-73.88,38.26-138.38,60.15-71.54,24.29-134.86,36.67-167,37.82C1478.14,773.49,1536,742.54,1607.56,718.25Z"/><path class="cls-2" d="M1897.34,762.06c53,42.94,93.68,90.12,109.46,114.81-27.42-10.33-77.2-42.48-130.17-85.42-42.89-34.77-78.41-69-98.77-93.8a5.31,5.31,0,0,1,6.38-8.16C1813,703,1854.48,727.31,1897.34,762.06Z"/><circle class="cls-1" cx="1771.64" cy="681.88" r="20.84"/></g><g id="HILLS"><path class="cls-3" d="M147.81,2034.22H3464.22s-320.5-416.45-889.63-325.88c-747.42,118.94-1024.94-138.52-1383.84-229.89-342-87.08-603.14,28.25-779.24,171.78-143.49,116.94-263.7,250-263.7,384Z"/><path class="cls-4" d="M1322.48,2034.22s168.73-219.69,596-162.89c593.94,79,806.24-356.8,1312.85-381.18,928.42-44.68,1276.07,544.07,1276.07,544.07Z"/><polygon class="cls-4" points="119.16 2034.22 0 1913.05 134.77 2006.44 130.39 1917.8 193.55 1994.88 182.41 1719.03 229.47 1965.17 274.51 1922.41 270.34 1996.44 321.2 1975.43 281.21 2034.12 119.16 2034.22"/><path class="cls-4" d="M318.43,1945.29c-8.82,8.12-15.19,7.56-22.72,5.66-1.27-7.66-1.1-13.84,7.72-22s27.14-14.45,31.29-14C334.87,1919.12,327.25,1937.17,318.43,1945.29Z"/></g><g id="SUNFLOWERS"><line class="cls-5" x1="2417.03" y1="2518.78" x2="2417.03" y2="1551.41"/><path class="cls-6" d="M2471.59,1300.81c-6.84,34.37-20.77,62.46-35.18,74.16-8.83-16.33-10.92-47.61-4.08-82s20.77-62.46,35.18-74.16C2476.34,1235.15,2478.44,1266.44,2471.59,1300.81Z"/><path class="cls-6" d="M2405.71,1631.58c-6.84,34.36-20.77,62.46-35.18,74.15-8.82-16.32-10.92-47.6-4.08-82s20.77-62.47,35.18-74.16C2410.46,1565.92,2412.56,1597.21,2405.71,1631.58Z"/><path class="cls-6" d="M2258.5,1409.9c34.36,6.85,62.45,20.77,74.15,35.18-16.32,8.83-47.61,10.92-82,4.08s-62.47-20.77-74.17-35.18C2192.84,1405.15,2224.12,1403.06,2258.5,1409.9Z"/><path class="cls-6" d="M2589.26,1475.78c34.37,6.85,62.46,20.77,74.16,35.18-16.33,8.83-47.61,10.92-82,4.08s-62.46-20.77-74.16-35.18C2523.6,1471,2554.89,1468.93,2589.26,1475.78Z"/><path class="cls-6" d="M2342.56,1311.39c19.46,29.14,29.48,58.85,27.56,77.31-17.79-5.3-41.39-25.94-60.85-55.08s-29.48-58.86-27.57-77.32C2299.49,1261.6,2323.1,1282.24,2342.56,1311.39Z"/><path class="cls-6" d="M2529.86,1591.86c19.46,29.14,29.48,58.85,27.57,77.31-17.79-5.3-41.4-25.94-60.85-55.08s-29.49-58.86-27.57-77.32C2486.8,1542.08,2510.4,1562.71,2529.86,1591.86Z"/><path class="cls-6" d="M2269,1539.21c29.14-19.46,58.85-29.48,77.31-27.56-5.3,17.78-25.94,41.39-55.08,60.85s-58.86,29.48-77.32,27.56C2219.23,1582.28,2239.87,1558.67,2269,1539.21Z"/><path class="cls-6" d="M2549.49,1351.9c29.14-19.46,58.85-29.48,77.31-27.56-5.3,17.79-25.94,41.39-55.08,60.85s-58.86,29.49-77.32,27.57C2499.7,1395,2520.34,1371.37,2549.49,1351.9Z"/><path class="cls-6" d="M2409.47,1298.61c6,33.31,3.34,63.47-5.49,79.06-13.69-11.56-26.6-39-32.56-72.25s-3.35-63.48,5.49-79.08C2390.6,1237.91,2403.51,1265.29,2409.47,1298.61Z"/><path class="cls-6" d="M2466.82,1619.2c6,33.3,3.34,63.47-5.49,79.06-13.69-11.56-26.6-39-32.56-72.26s-3.35-63.48,5.49-79.07C2448,1558.49,2460.86,1585.88,2466.82,1619.2Z"/><path class="cls-6" d="M2256.34,1471.79c33.31-6,63.47-3.35,79.06,5.49-11.56,13.69-39,26.6-72.25,32.56s-63.48,3.34-79.08-5.49C2195.64,1490.66,2223,1477.75,2256.34,1471.79Z"/><path class="cls-6" d="M2576.93,1414.44c33.3-6,63.47-3.35,79.06,5.49-11.56,13.69-38.95,26.6-72.26,32.56s-63.48,3.34-79.07-5.49C2516.22,1433.31,2543.61,1420.4,2576.93,1414.44Z"/><path class="cls-6" d="M2296.18,1358.31c27.88,18.51,47.66,41,52.77,58-17.62,1.88-46-7.61-73.91-26.12s-47.67-41-52.78-58C2239.89,1330.31,2268.29,1339.8,2296.18,1358.31Z"/><path class="cls-6" d="M2564.57,1536.45c27.88,18.5,47.66,41,52.77,58-17.63,1.88-46-7.61-73.92-26.12s-47.66-41-52.77-58C2508.27,1508.45,2536.68,1517.94,2564.57,1536.45Z"/><path class="cls-6" d="M2315.31,1586.15c18.51-27.88,41-47.65,58-52.76,1.88,17.62-7.61,46-26.11,73.91s-41,47.66-58,52.77C2287.31,1642.45,2296.8,1614,2315.31,1586.15Z"/><path class="cls-6" d="M2493.45,1317.77c18.51-27.88,41-47.66,58-52.77,1.88,17.63-7.61,46-26.11,73.91s-41,47.67-58,52.78C2465.45,1374.06,2474.94,1345.66,2493.45,1317.77Z"/><circle class="cls-7" cx="2419.96" cy="1462.47" r="99.95"/><path class="cls-7" d="M2519.91,1462.47c0,.28,0,.58,0,.87a99.14,99.14,0,0,1-1.71,17.69c-.18,1-.37,1.93-.59,2.88a98.6,98.6,0,0,1-5.63,17.67c-.42,1-.84,1.93-1.29,2.89a98.62,98.62,0,0,1-6.9,12.45c-.91,1.42-1.87,2.81-2.88,4.19-.24.34-.5.69-.76,1-.72,1-1.46,1.93-2.24,2.88a98.89,98.89,0,0,1-14.68,14.82c-.94.78-1.9,1.54-2.88,2.27l-.78.59q-2,1.5-4.09,2.88a97.75,97.75,0,0,1-12.81,7.26c-1,.47-1.92.9-2.89,1.32a99.68,99.68,0,0,1-17.68,5.79q-1.43.33-2.88.6a100.07,100.07,0,0,1-17.68,1.84c-.52,0-1.05,0-1.57,0s-.87,0-1.31,0a99.87,99.87,0,0,1-17.68-1.79c-1-.18-1.93-.39-2.88-.6a97.67,97.67,0,0,1-17.68-5.73c-1-.42-1.94-.85-2.89-1.31a97.5,97.5,0,0,1-13.07-7.38q-2.07-1.38-4.08-2.88l-.53-.4c-1-.73-1.93-1.49-2.88-2.26a99.08,99.08,0,0,1-14.93-15c-.78-1-1.52-1.91-2.24-2.88-.18-.24-.36-.48-.51-.71q-1.52-2-2.88-4.15a96,96,0,0,1-7.15-12.82c-.45-1-.88-1.92-1.29-2.89a98.6,98.6,0,0,1-5.63-17.67c-.22-1-.41-1.91-.6-2.88a101,101,0,0,1-1.71-17.69c0-.29,0-.59,0-.87,0-.68,0-1.35,0-2a99.68,99.68,0,0,1,1.93-17.68c.19-1,.39-1.92.61-2.88a98.89,98.89,0,0,1,5.89-17.68c.42-1,.87-1.94,1.33-2.89a98.64,98.64,0,0,1,6.61-11.69c.91-1.41,1.87-2.8,2.88-4.15.44-.62.9-1.23,1.37-1.84.74-1,1.51-1.94,2.3-2.88a99.27,99.27,0,0,1,14-13.87c.95-.78,1.91-1.54,2.88-2.27.68-.52,1.39-1,2.08-1.53q2.1-1.5,4.26-2.88a96.82,96.82,0,0,1,11.34-6.25c.95-.46,1.91-.89,2.89-1.31a97.67,97.67,0,0,1,17.68-5.73c.95-.21,1.91-.42,2.88-.6a98.94,98.94,0,0,1,17.68-1.78c.44,0,.87,0,1.31,0s1.05,0,1.57,0a99.14,99.14,0,0,1,17.68,1.83c1,.18,1.93.39,2.88.61a98.85,98.85,0,0,1,17.68,5.78c1,.42,1.93.86,2.89,1.32a96.31,96.31,0,0,1,11.08,6.13q2.18,1.38,4.27,2.88c.78.56,1.56,1.13,2.33,1.72,1,.73,1.94,1.49,2.88,2.27a99.94,99.94,0,0,1,13.76,13.68c.79.94,1.55,1.9,2.29,2.88.56.71,1.1,1.44,1.63,2.17,1,1.38,2,2.77,2.88,4.19a98,98,0,0,1,6.36,11.32c.46,1,.9,1.91,1.33,2.89a98.89,98.89,0,0,1,5.89,17.68c.22,1,.42,1.91.61,2.88a98.76,98.76,0,0,1,1.92,17.68C2519.9,1461.12,2519.91,1461.79,2519.91,1462.47Z"/><path class="cls-4" d="M2339.28,1403.49v118q-1.52-2-2.88-4.15V1407.64C2337.31,1406.23,2338.27,1404.84,2339.28,1403.49Z"/><path class="cls-4" d="M2359.84,1382.63v159.68c-1-.73-1.93-1.49-2.88-2.26V1384.9C2357.91,1384.12,2358.87,1383.36,2359.84,1382.63Z"/><path class="cls-4" d="M2380.41,1370.66v183.62c-1-.42-1.94-.85-2.89-1.31V1372C2378.47,1371.51,2379.43,1371.08,2380.41,1370.66Z"/><path class="cls-4" d="M2401,1364.33v196.28c-1-.18-1.93-.39-2.88-.6V1364.93C2399,1364.72,2400,1364.51,2401,1364.33Z"/><path class="cls-4" d="M2421.53,1362.55V1562.4c-.52,0-1.05,0-1.57,0s-.87,0-1.31,0V1362.55c.44,0,.87,0,1.31,0S2421,1362.53,2421.53,1362.55Z"/><path class="cls-4" d="M2442.09,1365v195q-1.43.33-2.88.6V1364.38C2440.18,1364.56,2441.14,1364.77,2442.09,1365Z"/><path class="cls-4" d="M2462.66,1372.09v180.76c-1,.47-1.92.9-2.89,1.32v-183.4C2460.74,1371.19,2461.7,1371.63,2462.66,1372.09Z"/><path class="cls-4" d="M2483.22,1385.09v154.76c-.94.78-1.9,1.54-2.88,2.27v-159.3C2481.32,1383.55,2482.28,1384.31,2483.22,1385.09Z"/><path class="cls-4" d="M2503.78,1408v108.91c-.91,1.42-1.87,2.81-2.88,4.19V1403.82C2501.9,1405.2,2502.86,1406.59,2503.78,1408Z"/><path class="cls-4" d="M2479.56,1542.71q-2,1.5-4.09,2.88h-111q-2.07-1.38-4.08-2.88Z"/><path class="cls-4" d="M2500.14,1522.15c-.72,1-1.46,1.93-2.24,2.88H2342c-.78-1-1.52-1.91-2.24-2.88Z"/><path class="cls-4" d="M2512,1501.58c-.42,1-.84,1.93-1.29,2.89H2329.25c-.45-1-.88-1.92-1.29-2.89Z"/><path class="cls-4" d="M2518.19,1481c-.18,1-.37,1.93-.59,2.88H2322.33c-.22-1-.41-1.91-.6-2.88Z"/><path class="cls-4" d="M2519.91,1462.47c0,.28,0,.58,0,.87H2320c0-.29,0-.59,0-.87,0-.68,0-1.35,0-2h199.86C2519.9,1461.12,2519.91,1461.79,2519.91,1462.47Z"/><path class="cls-4" d="M2518,1442.78H2322c.19-1,.39-1.92.61-2.88h194.79C2517.58,1440.86,2517.78,1441.81,2518,1442.78Z"/><path class="cls-4" d="M2511.47,1422.22h-183c.42-1,.87-1.94,1.33-2.89h180.35C2510.6,1420.28,2511,1421.24,2511.47,1422.22Z"/><path class="cls-4" d="M2499.27,1401.65H2340.65c.74-1,1.51-1.94,2.3-2.88h154C2497.77,1399.71,2498.53,1400.67,2499.27,1401.65Z"/><path class="cls-4" d="M2478,1381.1H2361.92q2.1-1.5,4.26-2.88h107.56Q2475.92,1379.6,2478,1381.1Z"/><path class="cls-3" d="M2445,1937.6v-57.82a176.87,176.87,0,0,1,129.62-170.44l92-24.5L2621.4,1814.7a119.57,119.57,0,0,1-113,80.55h0a68.57,68.57,0,0,0-62.56,40.49Z"/><path class="cls-8" d="M2444,1938.6v-57.82a176.87,176.87,0,0,1,129.62-170.44l92-24.5"/><path class="cls-3" d="M2172.12,1900.28c22.74,0,33.42,13.2,43,33.83l33,71.05a146.78,146.78,0,0,0,133.14,85h0v-41a148.82,148.82,0,0,0-148.82-148.82Z"/><path class="cls-8" d="M2383.24,2087.14h0v-41a148.82,148.82,0,0,0-148.82-148.82h-62.3"/><path class="cls-5" d="M2417,2212.83s-24.48-181.51-153-270.75"/><path class="cls-5" d="M2417,2104.32s-7.26-223.35,142-316.25"/><line class="cls-5" x1="4197.11" y1="2445.85" x2="4197.11" y2="1531.62"/><path class="cls-6" d="M4146.76,1291.64c6.33,31.78,19.21,57.76,32.53,68.57,8.17-15.09,10.1-44,3.78-75.8s-19.21-57.76-32.54-68.58C4142.37,1230.93,4140.43,1259.86,4146.76,1291.64Z"/><path class="cls-6" d="M4207.68,1597.51c6.33,31.77,19.21,57.75,32.53,68.57,8.16-15.1,10.1-44,3.77-75.81s-19.2-57.76-32.53-68.58C4203.29,1536.79,4201.35,1565.72,4207.68,1597.51Z"/><path class="cls-6" d="M4343.81,1392.52c-31.77,6.33-57.75,19.2-68.57,32.53,15.1,8.16,44,10.1,75.8,3.77s57.77-19.21,68.58-32.53C4404.53,1388.12,4375.6,1386.19,4343.81,1392.52Z"/><path class="cls-6" d="M4038,1453.44c-31.78,6.32-57.76,19.2-68.57,32.52,15.09,8.17,44,10.11,75.8,3.78s57.76-19.21,68.58-32.53C4098.66,1449,4069.73,1447.1,4038,1453.44Z"/><path class="cls-6" d="M4266.08,1301.42c-18,26.95-27.26,54.42-25.49,71.49,16.45-4.9,38.28-24,56.27-50.93s27.27-54.43,25.49-71.5C4305.9,1255.38,4284.08,1274.47,4266.08,1301.42Z"/><path class="cls-6" d="M4092.88,1560.78c-18,26.94-27.26,54.41-25.49,71.48,16.45-4.9,38.27-24,56.27-50.93s27.26-54.42,25.49-71.49C4132.7,1514.74,4110.87,1533.82,4092.88,1560.78Z"/><path class="cls-6" d="M4334.08,1512.09c-26.94-18-54.41-27.26-71.48-25.49,4.9,16.45,24,38.28,50.93,56.27s54.42,27.27,71.49,25.49C4380.12,1551.91,4361,1530.09,4334.08,1512.09Z"/><path class="cls-6" d="M4074.73,1338.88c-26.95-18-54.42-27.26-71.49-25.48,4.9,16.45,24,38.27,50.93,56.27s54.43,27.26,71.5,25.49C4120.77,1378.71,4101.68,1356.88,4074.73,1338.88Z"/><path class="cls-6" d="M4204.21,1289.6c-5.51,30.8-3.09,58.7,5.07,73.11,12.66-10.69,24.6-36,30.11-66.81s3.09-58.7-5.07-73.12C4221.66,1233.47,4209.72,1258.8,4204.21,1289.6Z"/><path class="cls-6" d="M4151.18,1586.05c-5.51,30.8-3.1,58.69,5.07,73.11,12.66-10.69,24.6-36,30.11-66.81s3.09-58.7-5.07-73.12C4168.63,1529.92,4156.69,1555.25,4151.18,1586.05Z"/><path class="cls-6" d="M4345.81,1449.74c-30.8-5.51-58.69-3.09-73.11,5.08,10.69,12.66,36,24.6,66.81,30.11s58.7,3.09,73.12-5.08C4401.94,1467.19,4376.61,1455.25,4345.81,1449.74Z"/><path class="cls-6" d="M4049.36,1396.71c-30.8-5.51-58.69-3.09-73.11,5.08,10.69,12.66,36,24.6,66.81,30.11s58.7,3.09,73.12-5.08C4105.49,1414.16,4080.16,1402.22,4049.36,1396.71Z"/><path class="cls-6" d="M4309,1344.81c-25.78,17.11-44.07,37.91-48.79,53.6,16.3,1.74,42.56-7,68.35-24.15s44.07-37.91,48.8-53.61C4361,1318.91,4334.75,1327.69,4309,1344.81Z"/><path class="cls-6" d="M4060.79,1509.53c-25.79,17.12-44.07,37.91-48.8,53.61,16.3,1.74,42.56-7,68.35-24.15s44.08-37.91,48.8-53.61C4112.84,1483.64,4086.58,1492.42,4060.79,1509.53Z"/><path class="cls-6" d="M4291.27,1555.5c-17.11-25.78-37.91-44.07-53.6-48.8-1.74,16.3,7,42.57,24.15,68.35s37.91,44.08,53.61,48.8C4317.17,1607.56,4308.39,1581.29,4291.27,1555.5Z"/><path class="cls-6" d="M4126.55,1307.32c-17.12-25.78-37.91-44.07-53.61-48.8-1.74,16.3,7,42.57,24.15,68.35s37.92,44.08,53.61,48.81C4152.44,1359.38,4143.67,1333.11,4126.55,1307.32Z"/><circle class="cls-7" cx="4194.5" cy="1441.13" r="92.42"/><path class="cls-7" d="M4102.08,1441.12c0,.27,0,.54,0,.81a91.83,91.83,0,0,0,1.58,16.36c.17.9.34,1.78.55,2.66a89.42,89.42,0,0,0,5.21,16.34c.38.9.77,1.79,1.19,2.67a89.08,89.08,0,0,0,6.38,11.52q1.26,2,2.66,3.87c.22.32.46.64.7,1,.67.9,1.35,1.78,2.07,2.66a91.68,91.68,0,0,0,13.58,13.71c.87.72,1.76,1.43,2.67,2.1q.36.29.72.54,1.85,1.4,3.77,2.67a92,92,0,0,0,11.85,6.72c.88.42,1.77.82,2.67,1.21a91.47,91.47,0,0,0,16.35,5.35c.88.21,1.77.39,2.66.56a91.83,91.83,0,0,0,16.35,1.7c.48,0,1,0,1.45,0s.81,0,1.22,0a91.82,91.82,0,0,0,16.35-1.65c.89-.17,1.78-.36,2.66-.55a91.1,91.1,0,0,0,16.35-5.31c.9-.38,1.79-.78,2.67-1.21a89.47,89.47,0,0,0,12.08-6.82q1.92-1.27,3.78-2.67l.49-.36c.89-.68,1.78-1.38,2.66-2.1a91.6,91.6,0,0,0,13.81-13.89c.72-.88,1.4-1.76,2.07-2.66.17-.21.33-.44.47-.65q1.4-1.87,2.67-3.84a90.25,90.25,0,0,0,6.61-11.86c.41-.88.81-1.77,1.19-2.67a90.17,90.17,0,0,0,5.2-16.34c.21-.88.39-1.76.56-2.66a93.72,93.72,0,0,0,1.58-16.36c0-.27,0-.54,0-.81,0-.62,0-1.24,0-1.85a92.47,92.47,0,0,0-1.78-16.35c-.18-.9-.36-1.78-.57-2.67a91.72,91.72,0,0,0-5.44-16.35c-.4-.89-.8-1.78-1.23-2.66a92.54,92.54,0,0,0-6.11-10.82q-1.27-2-2.67-3.83c-.41-.57-.83-1.14-1.27-1.7-.68-.91-1.39-1.8-2.12-2.67a91.9,91.9,0,0,0-13-12.83c-.88-.72-1.77-1.42-2.66-2.09-.63-.48-1.28-1-1.92-1.42q-2-1.38-4-2.66a89.65,89.65,0,0,0-10.48-5.78c-.88-.42-1.77-.82-2.67-1.21a91.07,91.07,0,0,0-16.35-5.3c-.88-.2-1.77-.38-2.66-.55a91.82,91.82,0,0,0-16.35-1.65c-.41,0-.81,0-1.22,0s-1,0-1.45,0a91.83,91.83,0,0,0-16.35,1.69c-.89.17-1.78.36-2.66.56a92.28,92.28,0,0,0-16.35,5.35c-.9.39-1.79.79-2.67,1.22a90.48,90.48,0,0,0-10.25,5.67c-1.33.85-2.65,1.74-3.94,2.66-.72.52-1.44,1-2.15,1.59q-1.36,1-2.67,2.1a92.16,92.16,0,0,0-12.72,12.65q-1.09,1.3-2.13,2.67-.77,1-1.5,2-1.38,1.9-2.66,3.87a90.12,90.12,0,0,0-5.89,10.47c-.42.88-.83,1.77-1.22,2.66a92.56,92.56,0,0,0-5.45,16.35c-.2.89-.39,1.77-.57,2.67a92.47,92.47,0,0,0-1.78,16.35C4102.09,1439.88,4102.08,1440.5,4102.08,1441.12Z"/><path class="cls-4" d="M4269.11,1386.59v109.07q1.4-1.87,2.67-3.84v-101.4Q4270.51,1388.47,4269.11,1386.59Z"/><path class="cls-4" d="M4250.1,1367.3V1515c.89-.68,1.78-1.38,2.66-2.1V1369.39C4251.88,1368.67,4251,1368,4250.1,1367.3Z"/><path class="cls-4" d="M4231.08,1356.23V1526c.9-.38,1.79-.78,2.67-1.21V1357.44C4232.87,1357,4232,1356.62,4231.08,1356.23Z"/><path class="cls-4" d="M4212.07,1350.38v181.5c.89-.17,1.78-.36,2.66-.55v-180.4C4213.85,1350.73,4213,1350.55,4212.07,1350.38Z"/><path class="cls-4" d="M4193.05,1348.73v184.8c.48,0,1,0,1.45,0s.81,0,1.22,0v-184.8c-.41,0-.81,0-1.22,0S4193.53,1348.71,4193.05,1348.73Z"/><path class="cls-4" d="M4174,1351v180.29c.88.21,1.77.39,2.66.56V1350.42C4175.81,1350.59,4174.92,1350.78,4174,1351Z"/><path class="cls-4" d="M4155,1357.55v167.16c.88.42,1.77.82,2.67,1.21V1356.33C4156.79,1356.72,4155.9,1357.12,4155,1357.55Z"/><path class="cls-4" d="M4136,1369.57v143.11c.87.72,1.76,1.43,2.67,2.1V1367.47Q4137.32,1368.49,4136,1369.57Z"/><path class="cls-4" d="M4117,1390.77v100.71q1.26,2,2.66,3.87V1386.9Q4118.28,1388.81,4117,1390.77Z"/><path class="cls-4" d="M4139.4,1515.32q1.85,1.4,3.77,2.67h102.66q1.92-1.27,3.78-2.67Z"/><path class="cls-4" d="M4120.36,1496.31c.67.9,1.35,1.78,2.07,2.66h144.14c.72-.88,1.4-1.76,2.07-2.66Z"/><path class="cls-4" d="M4109.43,1477.29c.38.9.77,1.79,1.19,2.67h167.77c.41-.88.81-1.77,1.19-2.67Z"/><path class="cls-4" d="M4103.67,1458.29c.17.9.34,1.78.55,2.66h180.56c.21-.88.39-1.76.56-2.66Z"/><path class="cls-4" d="M4102.08,1441.12c0,.27,0,.54,0,.81h184.83c0-.27,0-.54,0-.81,0-.62,0-1.24,0-1.85H4102.09C4102.09,1439.88,4102.08,1440.5,4102.08,1441.12Z"/><path class="cls-4" d="M4103.87,1422.92h181.26c-.18-.9-.36-1.78-.57-2.67H4104.44C4104.24,1421.14,4104.05,1422,4103.87,1422.92Z"/><path class="cls-4" d="M4109.89,1403.9h169.23c-.4-.89-.8-1.78-1.23-2.66H4111.11C4110.69,1402.12,4110.28,1403,4109.89,1403.9Z"/><path class="cls-4" d="M4121.16,1384.89h146.68c-.68-.91-1.39-1.8-2.12-2.67H4123.29Q4122.2,1383.53,4121.16,1384.89Z"/><path class="cls-4" d="M4140.83,1365.88h107.35q-2-1.38-4-2.66h-99.46C4143.44,1364.07,4142.12,1365,4140.83,1365.88Z"/><path class="cls-3" d="M4172.28,1874.56v-45.28a138.54,138.54,0,0,0-101.52-133.5l-73.05-16.19,36.39,98.71a93.65,93.65,0,0,0,88.53,63.09h0a53.71,53.71,0,0,1,49,31.71Z"/><path class="cls-8" d="M4172.28,1865.56v-37.28a138.54,138.54,0,0,0-101.52-133.5l-72.05-14.19"/><path class="cls-3" d="M4228.91,2011.3v-41c0-82,59.2-148.45,132.23-148.45h62.47c0,104.6-84.8,189.4-189.4,189.4Z"/><path class="cls-8" d="M4228.91,2010.3h0v-41c0-82,59.2-148.45,132.23-148.45h62.47"/><path class="cls-5" d="M4197.11,2119.31s21.75-161.28,136-240.57"/><path class="cls-5" d="M4197.11,2012.89s6.45-188.67-126.22-271.22"/><line class="cls-5" x1="3792.69" y1="2515.85" x2="3792.69" y2="1741.62"/><path class="cls-6" d="M3843,1501.64c-6.33,31.78-19.21,57.76-32.53,68.57-8.17-15.09-10.11-44-3.78-75.8s19.21-57.76,32.53-68.58C3847.43,1440.93,3849.37,1469.85,3843,1501.64Z"/><path class="cls-6" d="M3782.12,1807.5c-6.33,31.78-19.21,57.76-32.53,68.58-8.17-15.1-10.11-44-3.78-75.81s19.21-57.76,32.53-68.58C3786.51,1746.79,3788.45,1775.72,3782.12,1807.5Z"/><path class="cls-6" d="M3646,1602.52c31.78,6.33,57.76,19.2,68.58,32.52-15.1,8.17-44,10.11-75.81,3.78s-57.76-19.21-68.58-32.53C3585.27,1598.12,3614.2,1596.19,3646,1602.52Z"/><path class="cls-6" d="M3951.85,1663.44c31.78,6.32,57.75,19.2,68.57,32.52-15.1,8.17-44,10.11-75.8,3.78s-57.77-19.21-68.58-32.53C3891.13,1659,3920.06,1657.1,3951.85,1663.44Z"/><path class="cls-6" d="M3723.72,1511.42c18,26.95,27.26,54.42,25.49,71.49-16.45-4.9-38.28-24-56.27-50.93s-27.27-54.43-25.49-71.5C3683.89,1465.38,3705.72,1484.47,3723.72,1511.42Z"/><path class="cls-6" d="M3896.92,1770.78c18,26.94,27.26,54.41,25.49,71.48-16.45-4.9-38.28-24-56.27-50.93s-27.26-54.42-25.49-71.49C3857.1,1724.74,3878.92,1743.82,3896.92,1770.78Z"/><path class="cls-6" d="M3655.71,1722.09c26.95-18,54.42-27.26,71.49-25.49-4.9,16.45-24,38.28-50.93,56.27s-54.42,27.26-71.49,25.49C3609.68,1761.91,3628.76,1740.09,3655.71,1722.09Z"/><path class="cls-6" d="M3915.07,1548.88c26.94-18,54.42-27.26,71.49-25.48-4.9,16.45-24,38.27-50.93,56.27s-54.43,27.26-71.5,25.49C3869,1588.71,3888.12,1566.88,3915.07,1548.88Z"/><path class="cls-6" d="M3785.59,1499.6c5.51,30.8,3.09,58.69-5.08,73.11-12.66-10.69-24.59-36-30.1-66.81s-3.1-58.7,5.07-73.12C3768.14,1443.47,3780.08,1468.8,3785.59,1499.6Z"/><path class="cls-6" d="M3838.62,1796.05c5.51,30.8,3.09,58.69-5.07,73.11-12.66-10.69-24.6-36-30.11-66.81s-3.09-58.7,5.07-73.12C3821.17,1739.92,3833.11,1765.25,3838.62,1796.05Z"/><path class="cls-6" d="M3644,1659.74c30.8-5.51,58.69-3.09,73.11,5.08-10.69,12.66-36,24.6-66.81,30.11s-58.71,3.09-73.13-5.08C3587.86,1677.19,3613.18,1665.25,3644,1659.74Z"/><path class="cls-6" d="M3940.44,1606.71c30.8-5.51,58.69-3.09,73.11,5.08-10.69,12.66-36,24.6-66.81,30.1s-58.71,3.1-73.13-5.07C3884.31,1624.16,3909.63,1612.22,3940.44,1606.71Z"/><path class="cls-6" d="M3680.83,1554.81c25.79,17.11,44.07,37.91,48.8,53.6-16.3,1.74-42.56-7-68.35-24.15s-44.08-37.91-48.8-53.61C3628.78,1528.91,3655,1537.69,3680.83,1554.81Z"/><path class="cls-6" d="M3929,1719.53c25.79,17.12,44.07,37.91,48.8,53.61-16.3,1.74-42.57-7-68.35-24.15s-44.08-37.91-48.8-53.61C3877,1693.64,3903.22,1702.42,3929,1719.53Z"/><path class="cls-6" d="M3698.52,1765.5c17.12-25.78,37.91-44.07,53.61-48.8,1.74,16.3-7,42.57-24.15,68.35s-37.91,44.08-53.61,48.8C3672.63,1817.55,3681.41,1791.29,3698.52,1765.5Z"/><path class="cls-6" d="M3863.25,1517.32c17.11-25.78,37.91-44.07,53.61-48.8,1.74,16.3-7,42.57-24.15,68.35s-37.92,44.08-53.61,48.81C3837.36,1569.38,3846.13,1543.11,3863.25,1517.32Z"/><circle class="cls-7" cx="3795.3" cy="1651.13" r="92.42"/><path class="cls-7" d="M3887.72,1651.12c0,.27,0,.54,0,.81a91.83,91.83,0,0,1-1.58,16.36c-.17.9-.35,1.78-.55,2.66a91,91,0,0,1-5.21,16.34c-.38.9-.77,1.79-1.19,2.67a90.3,90.3,0,0,1-6.38,11.52q-1.26,2-2.66,3.87c-.22.32-.46.64-.7,1-.67.9-1.36,1.78-2.07,2.66a91.68,91.68,0,0,1-13.58,13.71c-.87.72-1.76,1.43-2.67,2.1q-.36.29-.72.54-1.84,1.4-3.77,2.67a91.44,91.44,0,0,1-11.86,6.72c-.88.42-1.76.82-2.66,1.21a91.47,91.47,0,0,1-16.35,5.35c-.88.21-1.77.39-2.67.56a91.72,91.72,0,0,1-16.34,1.7c-.48,0-1,0-1.45,0s-.81,0-1.22,0a91.82,91.82,0,0,1-16.35-1.65c-.9-.17-1.79-.36-2.66-.55a91.1,91.1,0,0,1-16.35-5.31c-.9-.38-1.79-.78-2.67-1.21A89.47,89.47,0,0,1,3744,1728q-1.92-1.27-3.78-2.67l-.49-.36c-.9-.68-1.78-1.38-2.66-2.1a91.14,91.14,0,0,1-13.81-13.89c-.72-.88-1.41-1.76-2.07-2.66-.17-.21-.33-.44-.47-.65-.94-1.25-1.82-2.53-2.67-3.84a90.25,90.25,0,0,1-6.61-11.86c-.42-.88-.81-1.77-1.19-2.67A91,91,0,0,1,3705,1671c-.2-.88-.38-1.76-.55-2.66a93.72,93.72,0,0,1-1.58-16.36c0-.27,0-.54,0-.81,0-.62,0-1.24,0-1.85a92.47,92.47,0,0,1,1.78-16.35c.17-.9.36-1.78.57-2.67a91.72,91.72,0,0,1,5.44-16.35c.39-.9.8-1.78,1.23-2.66a91.12,91.12,0,0,1,6.11-10.82c.85-1.3,1.73-2.58,2.67-3.84.41-.56.83-1.13,1.27-1.69.68-.91,1.39-1.8,2.12-2.67a91.37,91.37,0,0,1,13-12.83c.88-.72,1.76-1.42,2.66-2.1.63-.48,1.28-1,1.92-1.41,1.3-.92,2.61-1.81,4-2.66a88.84,88.84,0,0,1,10.48-5.78c.88-.43,1.77-.83,2.67-1.21a91.07,91.07,0,0,1,16.35-5.3c.87-.2,1.76-.38,2.66-.55a92.76,92.76,0,0,1,16.35-1.66h2.67a91.72,91.72,0,0,1,16.34,1.7c.9.17,1.79.36,2.67.56a91.47,91.47,0,0,1,16.35,5.35c.9.39,1.78.79,2.66,1.22a89.76,89.76,0,0,1,10.26,5.67c1.33.85,2.65,1.74,3.94,2.66.72.52,1.44,1,2.15,1.59q1.37,1,2.67,2.1a92.16,92.16,0,0,1,12.72,12.65q1.09,1.3,2.13,2.67.77,1,1.5,2c.92,1.27,1.81,2.55,2.66,3.87a88.61,88.61,0,0,1,5.88,10.47c.43.88.84,1.76,1.23,2.66a92.56,92.56,0,0,1,5.45,16.35c.2.89.39,1.77.57,2.67a92.47,92.47,0,0,1,1.77,16.35C3887.71,1649.88,3887.72,1650.5,3887.72,1651.12Z"/><path class="cls-4" d="M3720.69,1596.58v109.08c-.94-1.25-1.82-2.53-2.67-3.84v-101.4C3718.87,1599.12,3719.75,1597.84,3720.69,1596.58Z"/><path class="cls-4" d="M3739.7,1577.29V1725c-.9-.68-1.78-1.38-2.66-2.1V1579.39C3737.92,1578.67,3738.8,1578,3739.7,1577.29Z"/><path class="cls-4" d="M3758.72,1566.23V1736c-.9-.38-1.79-.78-2.67-1.21V1567.44C3756.93,1567,3757.82,1566.61,3758.72,1566.23Z"/><path class="cls-4" d="M3777.73,1560.38v181.5c-.9-.17-1.79-.36-2.66-.55v-180.4C3775.94,1560.73,3776.83,1560.55,3777.73,1560.38Z"/><path class="cls-4" d="M3796.75,1558.72v184.81c-.48,0-1,0-1.45,0s-.81,0-1.22,0V1558.72h2.67Z"/><path class="cls-4" d="M3815.76,1561v180.29c-.88.21-1.77.39-2.67.56V1560.42C3814,1560.59,3814.88,1560.78,3815.76,1561Z"/><path class="cls-4" d="M3834.77,1567.55v167.16c-.88.42-1.76.82-2.66,1.21V1566.33C3833,1566.72,3833.89,1567.12,3834.77,1567.55Z"/><path class="cls-4" d="M3853.79,1579.57v143.11c-.87.72-1.76,1.43-2.67,2.1V1577.47Q3852.49,1578.49,3853.79,1579.57Z"/><path class="cls-4" d="M3872.8,1600.77v100.71q-1.26,2-2.66,3.87V1596.9C3871.06,1598.17,3872,1599.45,3872.8,1600.77Z"/><path class="cls-4" d="M3850.4,1725.32q-1.84,1.4-3.77,2.67H3744q-1.92-1.27-3.78-2.67Z"/><path class="cls-4" d="M3869.44,1706.31c-.67.9-1.36,1.78-2.07,2.66H3723.23c-.72-.88-1.41-1.76-2.07-2.66Z"/><path class="cls-4" d="M3880.37,1687.29c-.38.9-.77,1.79-1.19,2.67H3711.41c-.42-.88-.81-1.77-1.19-2.67Z"/><path class="cls-4" d="M3886.13,1668.29c-.17.9-.35,1.78-.55,2.66H3705c-.2-.88-.38-1.76-.55-2.66Z"/><path class="cls-4" d="M3887.72,1651.12c0,.27,0,.54,0,.81H3702.88c0-.27,0-.54,0-.81,0-.62,0-1.24,0-1.85H3887.7C3887.71,1649.88,3887.72,1650.5,3887.72,1651.12Z"/><path class="cls-4" d="M3885.93,1632.92H3704.67c.17-.9.36-1.78.57-2.67h180.12C3885.56,1631.14,3885.75,1632,3885.93,1632.92Z"/><path class="cls-4" d="M3879.91,1613.9H3710.68c.39-.9.8-1.78,1.23-2.66h166.77C3879.11,1612.12,3879.52,1613,3879.91,1613.9Z"/><path class="cls-4" d="M3868.64,1594.89H3722c.68-.91,1.39-1.8,2.12-2.67h142.43Q3867.6,1593.53,3868.64,1594.89Z"/><path class="cls-4" d="M3849,1575.88H3741.62c1.3-.92,2.61-1.81,4-2.66H3845C3846.36,1574.07,3847.68,1575,3849,1575.88Z"/><path class="cls-3" d="M3817.52,2091.87V2040.5a157.14,157.14,0,0,1,115.16-151.44l81.75-21.78-40.15,115.39a106.25,106.25,0,0,1-100.43,71.57h0a60.93,60.93,0,0,0-55.59,36Z"/><path class="cls-8" d="M3817.37,2090.21l-.74,1.66V2040.5a157.14,157.14,0,0,1,115.17-151.44l81.74-21.78"/><path class="cls-3" d="M3589.19,2071.6h0a168.7,168.7,0,0,0,168.7,168.7h6v-36.47a132.23,132.23,0,0,0-132.23-132.23Z"/><path class="cls-3" d="M3982.28,2223.6h0A133.65,133.65,0,0,1,3813.16,2308l-4.51-1.51,9.16-27.4a104.75,104.75,0,0,1,132.56-66.14Z"/><path class="cls-5" d="M3792.69,2329.31s-21.75-141.28-136-220.57"/><path class="cls-5" d="M3792.69,2232.89s-6.45-188.68,126.22-271.22"/><path class="cls-5" d="M3792.69,2515.89s-89.82-199.95,116.22-271.22"/><path class="cls-7" d="M2730.45,2543.28h-556c1.41-20.15,23.22-27.73,41-27.73a56.9,56.9,0,0,1,24.11,5.17,53.74,53.74,0,0,1,53-62.45,53.56,53.56,0,0,1,41.08,19.13q.54.63,1,1.29a6.46,6.46,0,0,0,.64-1.29c5.22-23.76,41.88-59.54,101.53-59.54,65.06,0,102.34,34.78,116.44,70.91a53.66,53.66,0,0,1,88.59,25.4,75.77,75.77,0,0,1,32-6.78C2703.76,2507.39,2728.23,2523.2,2730.45,2543.28Z"/><circle class="cls-9" cx="2486.96" cy="2460.59" r="15.5"/><circle class="cls-9" cx="2281.02" cy="2496.42" r="8.93"/><ellipse class="cls-7" cx="2461.34" cy="2574.4" rx="35.61" ry="15.29"/><ellipse class="cls-7" cx="2535.11" cy="2562.11" rx="18.06" ry="7.75"/><path class="cls-7" d="M4377.32,2537.44c0,.27,0,.54,0,.8H3697.66v-3.46A66.63,66.63,0,0,1,3790.8,2499a66.6,66.6,0,0,1,128.83,9.09h44.61c4.57-23.12,30.72-33.79,53.86-33.79a62.41,62.41,0,0,1,9.24.69,66.2,66.2,0,0,1-.78-10.11c0-42.73,40.79-77.39,91.09-77.39,46,0,84.08,29,90.21,66.66a65,65,0,0,1,101,50.45,46.74,46.74,0,0,1,24.65-6.89C4357.71,2497.7,4377.32,2515.49,4377.32,2537.44Z"/><circle class="cls-9" cx="4156.64" cy="2445.66" r="14.92"/></g><g id="WOMAN"><ellipse id="SHADOW" class="cls-1" cx="3126.48" cy="2780.21" rx="708.59" ry="30.22"/><g id="LEGS"><g id="LEFT"><path class="cls-10" d="M2749.24,2330.85c28.18,4.54,63.91,7.27,101.17,7.27,43.83,0,94-3.81,126.06-9.63l-27.12,160.17c-27.34,4.27-64.76,6.92-106,6.92-44.49,0-84.51-3.07-112.24-7.95Z"/><path class="cls-11" d="M2993.5,2474.65l-26.35,305.51H2899.9c-1.69-16.41-20.8-29.33-44.11-29.33s-42.42,12.92-44.11,29.33H2580.41v-.09a29.73,29.73,0,0,1,16.4-26.54c25.09-12.62,71.3-39.17,82.73-68.46,20.95-53.67,12.67-204.6,12.16-213.36,1.31,13.21,68.68,23.86,151.59,23.86C2920,2495.57,2983.35,2486.47,2993.5,2474.65Z"/><ellipse class="cls-3" cx="2843.3" cy="2471.32" rx="151.62" ry="24.26"/><path class="cls-7" d="M2731.07,2487.63c27.73,4.88,67.75,7.94,112.23,7.94,41.28,0,78.71-2.64,106-6.92l6-34.25c-27.61-4.63-68.88-7.34-112-7.34-42.46,0-80.85,2.8-108.38,7.29Z"/><path class="cls-12" d="M2579,2764.91h216.51a5.41,5.41,0,0,0,5.11-3.69c5-14.61,27.72-25.63,55-25.63s50,11,55,25.63a5.39,5.39,0,0,0,5.1,3.69h53.5"/><path class="cls-8" d="M2691.7,2493.05c1.31,13.21,68.68,23.86,151.59,23.86,76.69,0,140.06-9.1,150.21-20.92"/></g><g id="RIGHT"><path class="cls-11" d="M3697.1,2780.07v.09H3465.83c-1.69-16.41-20.79-29.33-44.11-29.33s-42.42,12.92-44.11,29.33h-67.25L3284,2474.65c10.14,11.82,73.52,20.92,150.19,20.92,82.93,0,150.3-10.65,151.61-23.86-.51,8.76-8.79,159.69,12.16,213.36,11.42,29.29,57.64,55.84,82.73,68.46A29.73,29.73,0,0,1,3697.1,2780.07Z"/><path class="cls-8" d="M3284,2496c10.14,11.82,73.52,20.92,150.19,20.92,82.93,0,152.33-10.65,153.64-23.86"/><path class="cls-12" d="M3697.82,2764.91H3481.31a5.41,5.41,0,0,1-5.11-3.69c-5-14.61-27.72-25.63-55-25.63s-50,11-55,25.63a5.39,5.39,0,0,1-5.1,3.69h-53.5"/><ellipse class="cls-3" cx="3434.21" cy="2471.32" rx="151.62" ry="24.26"/><path class="cls-10" d="M3546.45,2487.63c-27.74,4.88-67.75,7.95-112.24,7.95-41.28,0-78.7-2.65-106-6.92L3311,2330a792.75,792.75,0,0,0,88.38,4.7c51,0,98.06-4,127-10.22h1.19Z"/><path class="cls-7" d="M3546.44,2487.63c-27.73,4.88-67.75,7.94-112.24,7.94-41.27,0-78.7-2.64-106-6.92l-3.7-34.07c27.61-4.63,66.57-7.52,109.73-7.52,42.47,0,80.86,2.8,108.39,7.29Z"/></g></g><g id="HAIR"><path class="cls-6" d="M3563.16,836.22c0,78.8-65.48,142.68-146.26,142.68S3270.64,915,3270.64,836.22a139.11,139.11,0,0,1,10.87-54.06,80.68,80.68,0,0,1-17.28,1.86c-45.57,0-82.52-38-82.52-84.92,0-40.9,28.1-75,65.51-83.11l-125.36-4.47s-38.17-.35-34.29-27.24c1.56-10.82,9.43-15.38,17.68-16.57-16.62-13.08-31.72-37.63,2.35-44.93C3148,514.13,3221.7,541,3241.34,563c13.27,14.89,14.14,44.38,14.15,51.61a81.42,81.42,0,0,1,8.74-.47c45.57,0,82.51,38,82.51,84.92a88.26,88.26,0,0,1-.87,12.36,148.45,148.45,0,0,1,71-17.92C3497.68,693.54,3563.16,757.42,3563.16,836.22Z"/><circle class="cls-6" cx="3623.94" cy="919.46" r="33.03"/></g><g id="OVERALLS"><path class="cls-2" d="M3268.69,2323c26.95,6.6,75.53,11.73,130.66,11.73,51,0,98.05-4,127-10.21l1.16-.25-3.21-28.65L3353.87,778.06H2969.49L2690.66,2307.28c0,17,76,30.84,159.75,30.84,55.64,0,121.44-6.15,147.63-14.74a49.94,49.94,0,0,0,38.28-41.74l85.94-757c1.33-9.48,15.1-9.27,16.13.25l80.82,742.75C3220.19,2280.89,3227.94,2313,3268.69,2323Z"/><path class="cls-8" d="M3059.36,779.77h0s-9.19,83.67,117.87,83.67c112.52,0,128.59-83.67,128.59-83.67"/></g><g id="PUMPKIN"><path class="cls-7" d="M3041.78,1086c1.4-13.61,29.47-31.94,46.75-31.94l17,2.36c-15.59,5.65-31.89,16-30.16,34.3Z"/><ellipse class="cls-13" cx="3119.54" cy="1238.24" rx="132.74" ry="84.48" transform="translate(1374.08 4104.97) rotate(-80.31)"/><ellipse class="cls-13" cx="2946.07" cy="1208.63" rx="132.74" ry="84.48" transform="translate(1258.98 3909.34) rotate(-80.31)"/><ellipse class="cls-13" cx="3032.51" cy="1222.7" rx="142.63" ry="82.53" transform="translate(1317.01 4006.26) rotate(-80.31)"/><path class="cls-8" d="M2954.23,1310.26c-9.78-27.69-12.58-63.56-6.11-101.44,8.08-47.36,28.78-86.94,53.89-108.87"/><path class="cls-8" d="M3102.44,1117.48c16.22,29,21.49,73,13.45,120.13-8,46.81-28.3,86-53,108.1"/></g><g id="HANDS"><g id="LEFT-2" data-name="LEFT"><polygon class="cls-7" points="2974.26 1477.4 2843.4 1469.65 2853.33 1415.16 2974.26 1477.4"/><path class="cls-9" d="M2920.07,1053,2844,1137.63a31.71,31.71,0,0,0,8.44,49.06l202.27,110-80.4,177.68-271-130.77c-122.22-59-146.72-222.48-47.16-314.69L2890,812.27a117,117,0,0,1,79.49-31.16Z"/><path class="cls-1" d="M2596.87,1138.42v62.74c-.48-2.88-.88-5.76-1.22-8.66-.2-1.69-.38-3.38-.53-5.08a195.57,195.57,0,0,1-.38-30.33c.11-1.7.24-3.39.4-5.08Q2595.76,1145.19,2596.87,1138.42Z"/><path class="cls-1" d="M2632.27,1055.29V1285.2q-2.62-3.54-5.08-7.19V1062.4C2628.82,1060,2630.52,1057.62,2632.27,1055.29Z"/><path class="cls-1" d="M2667.69,1018.15v303.36c-1.73-1.36-3.42-2.73-5.08-4.13V1022.85Z"/><path class="cls-1" d="M2703.09,985.35v358.16c-1.72-.83-3.4-1.68-5.08-2.55V990.06Z"/><polygon class="cls-1" points="2738.51 952.56 2738.51 1360.6 2733.43 1358.15 2733.43 957.26 2738.51 952.56"/><polygon class="cls-1" points="2773.92 919.76 2773.92 1377.68 2768.84 1375.23 2768.84 924.46 2773.92 919.76"/><polygon class="cls-1" points="2809.32 886.98 2809.32 1394.76 2804.24 1392.31 2804.24 891.68 2809.32 886.98"/><path class="cls-1" d="M2844.74,854.18v282.57l-.79.88a31.69,31.69,0,0,0-4.29,6.06V858.89Z"/><path class="cls-1" d="M2844.74,1180.91v230.95l-5.08-2.45V1174A31.18,31.18,0,0,0,2844.74,1180.91Z"/><polygon class="cls-1" points="2880.15 821.38 2880.15 1097.37 2875.07 1103.02 2875.07 826.09 2880.15 821.38"/><polygon class="cls-1" points="2880.15 1201.79 2880.15 1428.94 2875.07 1426.49 2875.07 1199.03 2880.15 1201.79"/><path class="cls-1" d="M2915.56,794.3V1058l-5.09,5.65V797h.1C2912.21,796.08,2913.87,795.16,2915.56,794.3Z"/><polygon class="cls-1" points="2915.55 1221.05 2915.55 1446.03 2910.47 1443.57 2910.47 1218.28 2915.55 1221.05"/><path class="cls-1" d="M2951,782.59V883l-3.69,20.28-.92,5.08-.47,2.59V783.52C2947.58,783.17,2949.26,782.86,2951,782.59Z"/><polygon class="cls-1" points="2950.97 1240.29 2950.97 1463.11 2945.89 1460.66 2945.89 1237.53 2950.97 1240.29"/><polygon class="cls-1" points="2986.37 1259.54 2986.37 1447.58 2981.29 1458.81 2981.29 1256.79 2983.97 1258.24 2986.37 1259.54"/><polygon class="cls-1" points="3021.79 1278.8 3021.79 1369.55 3021.68 1369.55 3016.71 1380.55 3016.71 1276.03 3021.79 1278.8"/><polygon class="cls-1" points="3054.66 1296.67 3053.74 1298.72 3052.12 1302.28 3052.12 1295.29 3054.66 1296.67"/><polygon class="cls-1" points="2991.93 1435.29 2989.64 1440.37 2903.84 1440.37 2893.3 1435.29 2991.93 1435.29"/><polygon class="cls-1" points="3007.96 1399.87 3005.66 1404.95 2830.44 1404.95 2819.91 1399.87 3007.96 1399.87"/><polygon class="cls-1" points="3023.98 1364.47 3021.79 1369.32 3021.79 1369.55 2757.06 1369.55 2746.53 1364.47 3023.98 1364.47"/><path class="cls-1" d="M3040,1329.06l-2.3,5.08H2685.93q-4-2.46-7.89-5.08Z"/><path class="cls-1" d="M3054.66,1296.67l-.92,2H2643.33c-1.51-1.66-3-3.36-4.4-5.08h410.16l3,1.65Z"/><path class="cls-1" d="M2993.31,1263.32H2618.25q-1.39-2.52-2.7-5.08H2984l2.4,1.3Z"/><path class="cls-1" d="M2928.18,1227.91h-325q-.79-2.54-1.5-5.09h317.16Z"/><path class="cls-1" d="M2863.06,1192.5H2595.65c-.2-1.69-.38-3.38-.53-5.08h258.6Z"/><path class="cls-1" d="M2836.56,1152a29.13,29.13,0,0,0-.69,5.08H2594.74c.11-1.7.24-3.39.4-5.08Z"/><path class="cls-1" d="M2862.87,1116.59l-4.58,5.08H2600.4c.43-1.69.89-3.39,1.38-5.08Z"/><path class="cls-1" d="M2894.69,1081.19l-4.57,5.08H2613.38c.84-1.71,1.69-3.39,2.56-5.08Z"/><path class="cls-1" d="M2921.38,1045.78l-.93,5.08H2635.69q2-2.58,4.18-5.08Z"/><polygon class="cls-1" points="2927.96 1009.51 2927.05 1014.59 2671.52 1014.59 2677.01 1009.51 2927.96 1009.51"/><polygon class="cls-1" points="2934.41 974.09 2933.48 979.17 2709.77 979.17 2715.26 974.09 2934.41 974.09"/><polygon class="cls-1" points="2940.85 938.69 2939.92 943.77 2748 943.77 2753.48 938.69 2940.85 938.69"/><polygon class="cls-1" points="2947.28 903.28 2946.36 908.36 2786.24 908.36 2791.72 903.28 2947.28 903.28"/><polygon class="cls-1" points="2953.72 867.86 2952.8 872.94 2824.47 872.94 2829.96 867.86 2953.72 867.86"/><polygon class="cls-1" points="2960.16 832.46 2959.23 837.54 2862.7 837.54 2868.19 832.46 2960.16 832.46"/><path class="cls-1" d="M2966.6,797l-.93,5.08H2902.6q3.84-2.67,7.87-5V797Z"/><path class="cls-14" d="M2974.26,1474.35l-271-130.77c-122.22-59-146.72-222.48-47.16-314.69L2890,812.27a117,117,0,0,1,79.49-31.16"/><path class="cls-14" d="M2920.07,1053,2844,1137.63a31.71,31.71,0,0,0,8.44,49.06l202.27,110"/></g><g id="RIGHT-2" data-name="RIGHT"><polygon class="cls-7" points="3420.13 1368.07 3424.66 1408.43 3276.99 1369.97 3420.13 1368.07"/><path class="cls-9" d="M3382.56,1036.64,3465,1145.85a16.88,16.88,0,0,1-13.47,27.05H3277v195h272.42c124.05,0,195.71-140.73,122.75-241L3460,835.14a131.16,131.16,0,0,0-106.09-54Z"/><rect class="cls-1" x="3276.99" y="1172.9" width="2.75" height="195.03"/><rect class="cls-1" x="3310.07" y="1172.9" width="5.08" height="195.03"/><rect class="cls-1" x="3345.48" y="1172.9" width="5.08" height="195.03"/><path class="cls-1" d="M3386,785.1v256.05l-3.41-4.51-1.67-14.93V783.91C3382.59,784.28,3384.28,784.67,3386,785.1Z"/><rect class="cls-1" x="3380.89" y="1172.9" width="5.08" height="195.03"/><path class="cls-1" d="M3421.38,799.82v288.25l-1.35-1.8-3.73-4.94V796.92l.23.12C3418.17,797.93,3419.79,798.85,3421.38,799.82Z"/><rect class="cls-1" x="3416.3" y="1172.9" width="5.08" height="195.03"/><path class="cls-1" d="M3456.79,831v304l-5.08-6.74V824.92Q3454.35,827.85,3456.79,831Z"/><path class="cls-1" d="M3456.79,1172.1v195.83h-5.08v-195A17.66,17.66,0,0,0,3456.79,1172.1Z"/><polygon class="cls-1" points="3492.2 879.45 3492.2 1367.92 3487.12 1367.92 3487.12 872.47 3487.46 872.94 3492.2 879.45"/><polygon class="cls-1" points="3527.61 928.14 3527.61 1367.92 3522.53 1367.92 3522.53 921.15 3527.61 928.14"/><path class="cls-1" d="M3563,976.84v390.51c-1.69.15-3.38.26-5.08.35V969.85l3.08,4.24Z"/><path class="cls-1" d="M3598.43,1025.51v334.55c-1.68.57-3.37,1.1-5.08,1.61V1018.52Z"/><path class="cls-1" d="M3633.84,1074.2v268.42c-1.66,1.12-3.36,2.21-5.08,3.26V1067.22Z"/><path class="cls-1" d="M3669.25,1121.67v187.71q-2.46,3.19-5.08,6.25V1115.89l.51.7,3.69,5.08Z"/><path class="cls-1" d="M3701.28,1222.82c-.08,1.7-.19,3.4-.34,5.09q-.46,5.68-1.36,11.3v-47.08l.06.37A147.25,147.25,0,0,1,3701.28,1222.82Z"/><path class="cls-1" d="M3651.13,1329.06c-1.91,1.73-3.87,3.43-5.87,5.08H3277v-5.08Z"/><path class="cls-1" d="M3679.91,1293.64q-1.51,2.58-3.13,5.08H3277v-5.08Z"/><path class="cls-1" d="M3695.29,1258.24c-.5,1.71-1,3.39-1.58,5.08H3277v-5.08Z"/><path class="cls-1" d="M3701.28,1222.82c-.08,1.7-.19,3.4-.34,5.09H3277v-5.09Z"/><path class="cls-1" d="M3699.64,1192.5H3277v-5.08h421.76c.3,1.57.59,3.13.83,4.71Z"/><path class="cls-1" d="M3689.4,1157.09h-221a15.93,15.93,0,0,0-.45-5.08H3687.1C3687.91,1153.69,3688.68,1155.39,3689.4,1157.09Z"/><polygon class="cls-1" points="3668.37 1121.67 3446.74 1121.67 3442.91 1116.59 3664.68 1116.59 3668.37 1121.67"/><polygon class="cls-1" points="3642.62 1086.27 3420.03 1086.27 3416.3 1081.33 3416.19 1081.19 3638.93 1081.19 3642.62 1086.27"/><polygon class="cls-1" points="3616.86 1050.86 3393.29 1050.86 3389.46 1045.78 3613.16 1045.78 3616.86 1050.86"/><polygon class="cls-1" points="3590.48 1014.59 3380.08 1014.59 3379.51 1009.51 3586.8 1009.51 3590.48 1014.59"/><polygon class="cls-1" points="3564.73 979.17 3376.11 979.17 3375.54 974.09 3561.03 974.09 3563.03 976.84 3564.73 979.17"/><polygon class="cls-1" points="3538.98 943.77 3372.14 943.77 3371.57 938.69 3535.28 938.69 3538.98 943.77"/><polygon class="cls-1" points="3513.22 908.36 3368.15 908.36 3367.58 903.28 3509.52 903.28 3513.22 908.36"/><polygon class="cls-1" points="3487.46 872.94 3364.18 872.94 3363.61 867.86 3483.77 867.86 3487.12 872.47 3487.46 872.94"/><path class="cls-1" d="M3461.71,837.54h-101.5l-.58-5.08H3458c.68.88,1.34,1.77,2,2.67Z"/><path class="cls-1" d="M3425.09,802.12h-68.87l-.57-5.08h60.88c1.64.89,3.26,1.81,4.85,2.78C3422.63,800.56,3423.86,801.33,3425.09,802.12Z"/><path class="cls-14" d="M3353.87,781.11a131.23,131.23,0,0,1,106.1,54l212.18,291.75c73,100.31,1.31,241-122.74,241h-266.5c32.24-109.69-.29-195-.29-195h168.92a16.87,16.87,0,0,0,13.47-27l-82.45-109.22"/></g></g><g id="BEET"><path class="cls-3" d="M3250.47,1073.13s6.87-196,68.34-178.84C3402.77,917.76,3250.47,1073.13,3250.47,1073.13Z"/><path class="cls-3" d="M3258.48,1073.52S3267,926.3,3203.17,932.6s47.3,140.53,47.3,140.53Z"/><path class="cls-4" d="M3250.47,1073.13s24.75-96.93,85.38-72.2-77.37,72.59-77.37,72.59Z"/><path class="cls-4" d="M3254.54,1075.17s-30.9-63.12-71.15-32.43C3170,1053,3254.54,1075.17,3254.54,1075.17Z"/><path class="cls-11" d="M3318.81,1120c0,23.57-17.16,43.81-41.64,52.47-31.3,9.41-29,120-29,120s-1.92-23.33-3.7-67.54c-1.53-37.88-5.81-44.82-23.21-53.37-2-.76-3.84-1.61-5.68-2.52h0c-20-9.94-33.45-28.17-33.45-49,0-31.46,30.59-51.9,68.33-51.9S3318.81,1088.49,3318.81,1120Z"/><path class="cls-3" d="M3372.36,1133.44s145-121.9,61.09-143.77c-62.07-16.18-67.24,138.64-67.24,138.64Z"/><path class="cls-4" d="M3366.21,1128.31s63.85-118.8,100.59-85.41C3531.32,1101.53,3366.21,1128.31,3366.21,1128.31Z"/><path class="cls-4" d="M3366.21,1128.31s79.42-17.86,86.08,21.81c6,35.94-79.93-16.68-79.93-16.68Z"/><path class="cls-4" d="M3368.22,1132.38s-6.42-94.23-37.24-78.91C3315.89,1061,3368.22,1132.38,3368.22,1132.38Z"/><path class="cls-11" d="M3400.8,1170.87H3275.7c-4.41-16.36-2.16-33.24,7.75-46.37,19-25.11,55.69-23,85.82-.25C3386.45,1137.22,3397.76,1154.1,3400.8,1170.87Z"/><path class="cls-8" d="M3275.28,1172c-5.19-17-3.18-34.78,7.16-48.47,19-25.11,55.69-23,85.81-.25"/></g><g id="ARMS"><g id="LEFT-3" data-name="LEFT"><path class="cls-11" d="M2996.24,1374.21c-22.2,49.07-33.06,98.63-23,103.18s37.24-37.62,59.44-86.68,32-92.53,22-97.09S3018.44,1325.15,2996.24,1374.21Z"/><path class="cls-10" d="M3181.28,1386.05a73.09,73.09,0,0,1-24.52,46.47c-23.72,20.74-67.08,45.89-126.12,27.32l-30.22-9.18c-12-3.63-23.83-7.25-27.81-8.49,4.21-18.86,12.49-43.34,23.63-68,12.9-28.51,27.13-52.63,38.78-67,7.82,2.33,16.23,4.83,22.88,6.79,6.93,2,12,3.5,12.42,3.58a80.49,80.49,0,0,0,49.69-7.49s15.08,4.37-7.28,31.67,33.25,28,61.72-15.82C3174.45,1326,3187.19,1336.19,3181.28,1386.05Z"/><path class="cls-5" d="M3178.82,1378.33s-18.67,28.72-59,44.28"/><path class="cls-5" d="M3179.05,1350.68s-16.63,26.69-57,42.25"/><path class="cls-7" d="M3057.9,1314.06c-2.5,18.19-11.5,46.36-25.21,76.65-10.43,23-21.94,44.31-32.27,60-12-3.63-23.83-7.25-27.81-8.49,4.21-18.86,12.49-43.34,23.63-68,12.9-28.51,27.13-52.63,38.78-67C3042.84,1309.6,3051.25,1312.1,3057.9,1314.06Z"/></g><g id="RIGHT-3" data-name="RIGHT"><path class="cls-11" d="M3250,1268.38c0,53.85,13,102.59,27,102.59s23.83-48.74,23.83-102.59-11.38-97.51-25.41-97.51S3250,1214.53,3250,1268.38Z"/><path class="cls-10" d="M3276.41,1171c13.57,2,24.41,44.86,24.41,97.43a376.92,376.92,0,0,1-3.36,51.89l-62-.51c-34.28-6.36-88.46-20.26-149-83.5-15.51-16.18-13.44-73.53-11.11-104a8.46,8.46,0,0,1,14.66-5.1c21.39,23.14,54,51.84,72.12,48.73,32.65-5.55-21-39.79-.61-56.89,0,0,81.08,51.36,95.3,51.92Z"/><path class="cls-5" d="M3138.36,1252.65c-20.64-11.94-37.65-28-61-52.26"/><path class="cls-5" d="M3139.53,1226.9c-20.63-11.94-40.32-28.83-63.62-53.15"/><path class="cls-5" d="M3140.7,1201.16c-20.63-12-40.32-28.84-63.61-53.16"/><path class="cls-7" d="M3254.21,1320a306.34,306.34,0,0,1-4.21-51.65c0-52.59,10.84-95.45,24.42-97.44h2c13.57,2,24.41,44.86,24.41,97.43a376.92,376.92,0,0,1-3.36,51.89Z"/></g></g><g id="NECK"><path class="cls-10" d="M3291.15,778.06S3277,848.2,3177.87,848.2c-97.8,0-104-53.54-104-67.07a29.55,29.55,0,0,1,.13-3.07,56.21,56.21,0,0,0,55-44.49l16.21-76.05h94v92.11a28.43,28.43,0,0,0,28.44,28.43Z"/><polygon class="cls-7" points="3239.23 657.52 3239.23 759.79 3132.15 718.87 3146.04 657.52 3239.23 657.52"/></g><g id="HEAD"><path class="cls-10" d="M3239.65,608.57a24.62,24.62,0,1,1,0,49.23h-16.83l-2.5,6.1a71.36,71.36,0,0,1-66.05,44.37h-9.49a33.43,33.43,0,0,1-33-38.5l10.15-66.21a50.17,50.17,0,0,1,36.84-40.92c3.28,7.92,20.63,45.13,58,46.1Z"/><path class="cls-5" d="M3227,639.12a18.63,18.63,0,0,1,18.64-18.64"/><path class="cls-5" d="M3123.37,610.18s16.22-3,23.4,11.32c4.74,9.44-1.68,42.81-1.68,42.81"/><path class="cls-5" d="M3170.65,614.9s16.57-1.26,29.89,8.75"/><ellipse class="cls-7" cx="3131.56" cy="633.06" rx="6.39" ry="3.33" transform="translate(2072.72 3647.41) rotate(-82.07)"/><ellipse class="cls-7" cx="3178.78" cy="637.35" rx="6.82" ry="3.55" transform="translate(2109.18 3697.87) rotate(-82.07)"/><path class="cls-7" d="M3217.14,608.73c-55.29.92-70.77-24.51-68.84-42.05a49.1,49.1,0,0,1,10.43-4C3162,570.56,3180.19,607.38,3217.14,608.73Z"/></g></g><g id="MAN"><ellipse id="SHADOW-2" data-name="SHADOW" class="cls-1" cx="1186.3" cy="2518.95" rx="851.58" ry="34.41"/><g id="CART"><g id="CART-2" data-name="CART"><path class="cls-5" d="M1144,1605.91h69.36a157.46,157.46,0,0,1,155,129.52l146.18,738.62a31.64,31.64,0,0,0,31.13,26h0a31.63,31.63,0,0,0,30.23-22.34l78.23-263.38"/><path class="cls-7" d="M1102.12,1898h440.3a63,63,0,0,1,22.35,4.11l515.4,196H1655.41a174.8,174.8,0,0,1-62.66-11.62Z"/></g><g id="CARROT"><path class="cls-7" d="M1758.47,1874.45l-3.86-2.36c.27-.52,11.9-22.17,23.63-33,15.71-14.48,33.39-19.3,51.12-13.9l-1.28,4.74C1788.65,1818,1758.71,1874,1758.47,1874.45Z"/><path class="cls-7" d="M1776.79,1842.6s16.67-1.93,13.18,7.33c-2.21,5.84-23.08,3-23.08,3s.34-25.28,9.52-25.48C1783.69,1827.32,1776.79,1842.6,1776.79,1842.6Z"/><path class="cls-7" d="M1789.24,1832.29s15.28,1.18,9.83,6.81c-2.77,2.87-20,1.4-20,1.4s7.46-22.81,14.85-23.84S1789.24,1832.29,1789.24,1832.29Z"/><path class="cls-7" d="M1809,1825.49s12,4,7.89,8.47c-2,2.19-18.22-5.48-18.22-5.48s7.08-14.82,14.2-12.8C1817.54,1817,1809,1825.49,1809,1825.49Z"/><path class="cls-7" d="M1814.29,1825.1s26.09-9,24.88,3.08C1838.26,1837.31,1814.29,1825.1,1814.29,1825.1Z"/><path class="cls-7" d="M1759.41,1887.62l-4.44-.24a92.16,92.16,0,0,0-3.35-28c-5.52-19.07-16.74-30.88-33.36-35.11l1.1-4.79c18,4.58,30.64,17.87,36.55,38.45A95.55,95.55,0,0,1,1759.41,1887.62Z"/><path class="cls-7" d="M1750.1,1846.3s-13.67-6.9-11.95.74c.88,3.88,16.41,11.56,16.41,11.56s5.49-23.36-.3-28.07S1750.1,1846.3,1750.1,1846.3Z"/><path class="cls-7" d="M1736.78,1830.29s-12.28-2.82-11.15,3.15c.54,2.89,18.43,4.74,18.43,4.74s1.66-16.33-5.48-18.28C1733.85,1818.61,1736.78,1830.29,1736.78,1830.29Z"/><path class="cls-7" d="M1732.43,1827.19s-17.61-21.21-22.88-10.24C1705.58,1825.23,1732.43,1827.19,1732.43,1827.19Z"/><path class="cls-7" d="M1756.39,1862.47l-4-2.15a108.93,108.93,0,0,0,8-29.43c2.52-21.37-2.85-37.9-16-49.13l2.79-3.91c14.24,12.2,20.31,30.76,17.57,53.69A112.37,112.37,0,0,1,1756.39,1862.47Z"/><path class="cls-7" d="M1762.56,1815s-8.16-11.23-9.74-3.47c-.8,3.94,9.93,17.86,9.93,17.86s14.15-16.19,9-26.43C1768.39,1796.11,1762.56,1815,1762.56,1815Z"/><path class="cls-7" d="M1758.45,1795.52s-9.83-8-11.26-2.06c-.7,2.89,14.53,12.52,14.53,12.52s8.16-14.22,2.57-19.18C1760.6,1783.52,1758.45,1795.52,1758.45,1795.52Z"/><path class="cls-7" d="M1755.82,1790.75s-7.07-27.24-16.26-19.52C1732.63,1777.05,1755.82,1790.75,1755.82,1790.75Z"/><path class="cls-6" d="M1682.93,2119.64h0a9,9,0,0,1-6.81-10.36l45.27-220.48c2.81-13.1,16.78-21.22,30.42-17.69l6.89,1.79c13.64,3.53,21.24,17.24,16.54,29.84L1694.41,2114A9.66,9.66,0,0,1,1682.93,2119.64Z"/><path class="cls-7" d="M1877.57,1915.76c-1.65,5.63-10.83.87-17.27-3.33-.34-.07-.68-.14-1-.19,2.2,2,3.86,4.59,1.41,6.46-1.65,1.26-9.4-3.78-13.76-6.82a46.43,46.43,0,0,0-7.82,1.65c3.52,1.63,7,4.14,3.27,6.77-2.18,1.54-10.42-.16-15.57-1.42-.72.4-1.46.83-2.2,1.29,4.49,1.09,10.17,3.59,6.87,9-2.25,3.74-12.68,1.48-18.72-.19a85.55,85.55,0,0,0-9.72,10l-3.35-3.16a88,88,0,0,1,9-9.46c1.18-5.09,6-23.37,13.72-22,4.95.87,1.87,7.73-.47,11.86l.08,0c.73-.45,1.46-.9,2.2-1.31,3.45-5.74,11.56-18.11,17.25-17.77,5.54.33-1.38,8.31-5.21,12.29a53,53,0,0,1,9.74-2.28c3.21-3.66,9.45-9.68,14.14-7.27,2.9,1.51-.57,5-3.2,7.13.89.09,1.76.2,2.63.35C1867.33,1907,1880,1907.54,1877.57,1915.76Z"/><path class="cls-7" d="M1794.68,1954.68l-4.28-1.23a93.83,93.83,0,0,0,1.93-28.35c-1.86-19.88-10.61-33.72-26-41.14l1.86-4.51c16.76,8.06,26.65,23.68,28.61,45.18A96.82,96.82,0,0,1,1794.68,1954.68Z"/><path class="cls-7" d="M1793.25,1912s-12.07-9.49-11.8-1.61c.14,4,13.87,14.63,13.87,14.63s9.69-22,4.91-27.77S1793.25,1912,1793.25,1912Z"/><path class="cls-7" d="M1783.21,1893.57s-11.46-5.18-11.47.93c0,3,17.11,8.29,17.11,8.29s4.65-15.8-2-19.13C1782.52,1881.46,1783.21,1893.57,1783.21,1893.57Z"/><path class="cls-7" d="M1779.53,1889.66s-13.26-24.39-20.43-14.59C1753.7,1882.47,1779.53,1889.66,1779.53,1889.66Z"/><path class="cls-7" d="M1796.4,1929.23l-3.48-3a108.62,108.62,0,0,0,13.24-27.51c6.41-20.6,4.24-38-6.47-51.6l3.4-3.28c11.65,14.86,14.15,34.39,7.23,56.5A112.14,112.14,0,0,1,1796.4,1929.23Z"/><path class="cls-7" d="M1811.21,1883.47s-5.89-12.68-8.86-5.33c-1.52,3.74,6.38,19.59,6.38,19.59s16.81-13.22,13.71-24.34C1820.39,1866,1811.21,1883.47,1811.21,1883.47Z"/><path class="cls-7" d="M1810.79,1863.49s-8.1-9.85-10.61-4.24c-1.21,2.72,11.87,15.21,11.87,15.21s10.59-12.45,6.06-18.44C1815.12,1852.06,1810.79,1863.49,1810.79,1863.49Z"/><path class="cls-7" d="M1809.11,1858.27s-1.86-28.29-12.25-22.47C1789,1840.19,1809.11,1858.27,1809.11,1858.27Z"/><path class="cls-6" d="M1678.73,2155.49h0a8.43,8.43,0,0,1-4.41-11l86.35-201.5c5.25-11.94,20.08-17.25,32.3-11.56l6.18,2.88c12.22,5.69,16.72,20,9.78,31.15l-118.22,186.66A9.52,9.52,0,0,1,1678.73,2155.49Z"/><path class="cls-7" d="M1720.47,1905.52v0a45.77,45.77,0,0,0-11.47.53c2.09.8,3.64,2,2.41,3.89-.89,1.36-8.29.32-13-.49a41.77,41.77,0,0,0-6.06,3.54c3.28.14,6.47,1,4.4,3.83-1.25,1.74-8.24,3.07-13,3.78-.48.53-1,1.07-1.42,1.63,4.05-.54,9.2-.34,8.33,4.44-.61,3.35-9.73,5-15.34,5.68a63.14,63.14,0,0,0-4.83,10.45l-4.19-1.54a63.89,63.89,0,0,1,4.4-9.76c-.78-4.39-2.76-18.52,4-19.92,4.25-.88,4.19,4.6,3.67,8.34.47-.58.95-1.14,1.45-1.71,1-5.39,3.54-16.35,8.27-17.85,4.51-1.43,1.92,5.73.08,9.94a48.64,48.64,0,0,1,7.32-4.69c1.51-3.69,4.58-9.37,9.06-9.1,2.67.16,1.46,3.2.12,5.53a46.75,46.75,0,0,1,9.47-1.5c6.35-2.48,15.08-4.73,15.79,1.29C1730.36,1905.19,1725.66,1905.81,1720.47,1905.52Z"/><path class="cls-7" d="M1666.48,1956.69c-.27-1.67-6.84-41.09-43.47-42.38l.25-4.91c40.22,1.41,47.54,45.9,47.61,46.35l-4.39.94,2.19-.47Z"/><path class="cls-7" d="M1655,1925.6s-13.26-3.08-10.36,2.53c1.47,2.85,16.48,6.23,16.48,6.23s.62-18.92-5.31-21.6S1655,1925.6,1655,1925.6Z"/><path class="cls-7" d="M1640.44,1915.43s-11.29-.16-9.23,4.26c1,2.14,17,.64,17,.64s-1.49-12.87-8.12-13.21C1635.77,1906.9,1640.44,1915.43,1640.44,1915.43Z"/><path class="cls-7" d="M1636.06,1913.76s-19.29-13.48-21.93-4.15C1612.14,1916.64,1636.06,1913.76,1636.06,1913.76Z"/><path class="cls-7" d="M1663.67,1937.18l-4.27-1.29a75.39,75.39,0,0,0,1.66-23.75c-1.63-16.67-9.27-28.41-22.7-34.87l1.87-4.52C1675.9,1889.93,1663.79,1936.71,1663.67,1937.18Z"/><path class="cls-7" d="M1660.31,1899.38s-9.19-7.33-9.17-1.09c0,3.18,11.94,12.16,11.94,12.16s9.5-14.81,3.16-21.87C1662,1883.89,1660.31,1899.38,1660.31,1899.38Z"/><path class="cls-7" d="M1653.2,1885.07s-10.07-4.59-10.26.25c-.09,2.35,15,7.28,15,7.28s4.6-12.31-1.2-15.22C1652.93,1875.46,1653.2,1885.07,1653.2,1885.07Z"/><path class="cls-7" d="M1650,1881.82s-11.11-19.86-17.79-12.4C1627.2,1875.05,1650,1881.82,1650,1881.82Z"/><path class="cls-6" d="M1659.35,2150.84h0c-4.65,0-8.49-3-8.82-6.9l-15.4-185.52c-.81-11,9.77-20.38,23-20.32l6.7,0c13.26.06,23.64,9.47,22.61,20.51L1668.31,2144C1667.91,2147.89,1664,2150.86,1659.35,2150.84Z"/></g><g id="PUMPKIN-2" data-name="PUMPKIN"><path class="cls-7" d="M1849.61,1969.68c4.32-11.64,33.15-21.36,48.33-17.43l14.43,5.94c-15,1.42-31.65,6.79-34.3,23.28Z"/><ellipse class="cls-13" cx="1883.33" cy="2121.1" rx="120.47" ry="76.67" transform="translate(-823.32 2969.66) rotate(-65.8)"/><ellipse class="cls-13" cx="1737.64" cy="2055.64" rx="120.47" ry="76.67" transform="translate(-849.59 2798.14) rotate(-65.8)"/><ellipse class="cls-13" cx="1810.39" cy="2087.66" rx="129.44" ry="74.9" transform="translate(-835.86 2883.4) rotate(-65.8)"/><path class="cls-8" d="M1721.71,2146.78c-2.3-26.55,3.39-58.7,17.69-90.51,17.87-39.78,45-69.84,72.1-83.4"/><path class="cls-8" d="M1895.75,2011.11c7.66,29.19,2.29,69-15.49,108.6-17.66,39.31-44.43,69.15-71.17,82.92"/></g><g id="SACK_OF_POTATOES" data-name="SACK OF POTATOES"><ellipse class="cls-6" cx="1255.35" cy="2086.21" rx="32.37" ry="46.34" transform="matrix(0.95, -0.33, 0.33, 0.95, -611.09, 522.69)"/><ellipse class="cls-6" cx="1315.93" cy="2155.51" rx="32.37" ry="35.94" transform="translate(-630.35 546.2) rotate(-19.01)"/><ellipse class="cls-6" cx="1286.45" cy="1986.49" rx="40.18" ry="53.75" transform="translate(-725.21 3233.21) rotate(-88.86)"/><ellipse class="cls-6" cx="1424.29" cy="2167.66" rx="40.18" ry="53.75" transform="translate(-771.25 3548.6) rotate(-88.86)"/><ellipse class="cls-6" cx="1355.1" cy="1906.54" rx="40.99" ry="36.35" transform="translate(-904.25 2511.97) rotate(-69.6)"/><ellipse class="cls-6" cx="1521.82" cy="1924.52" rx="40.18" ry="44.09" transform="translate(-812.5 2679.93) rotate(-69.6)"/><ellipse class="cls-6" cx="1411.14" cy="1978.42" rx="58.39" ry="39.31" transform="translate(-874.89 1154.09) rotate(-34.67)"/><ellipse class="cls-6" cx="1434.77" cy="1860.87" rx="39.31" ry="58.39" transform="translate(-527.9 568.84) rotate(-19.01)"/><ellipse class="cls-6" cx="1558.56" cy="2047.73" rx="39.31" ry="58.39" transform="translate(-408.28 388.26) rotate(-12.57)"/><circle class="cls-6" cx="1338.49" cy="2074.06" r="39.31"/><circle class="cls-6" cx="1490.65" cy="1994.55" r="25.59"/><circle class="cls-6" cx="1276.92" cy="1910.4" r="22.43"/><ellipse class="cls-6" cx="1343.62" cy="1836.93" rx="35.47" ry="21.66" transform="translate(-607.81 665.8) rotate(-22.85)"/><ellipse class="cls-6" cx="1447.56" cy="2077.1" rx="46.34" ry="37.53" transform="translate(-345.41 289.64) rotate(-10.21)"/><ellipse class="cls-6" cx="1517.55" cy="2139.37" rx="29.34" ry="39.2" transform="translate(-355.35 303.03) rotate(-10.21)"/><path class="cls-15" d="M1618.19,2047.87c-2.88,145.11-96.49,180.9-211,178.63s-206.65-41.77-203.77-186.87S1319.11,1779.09,1416,1781C1504.88,1782.79,1621.07,1902.77,1618.19,2047.87Z"/><line class="cls-15" x1="1431.59" y1="1783.33" x2="1422.79" y2="2225.81"/><line class="cls-15" x1="1463.22" y1="1791.96" x2="1454.65" y2="2223.44"/><line class="cls-15" x1="1494.68" y1="1809.59" x2="1486.54" y2="2219.07"/><line class="cls-15" x1="1525.98" y1="1835.22" x2="1518.54" y2="2209.71"/><line class="cls-15" x1="1557.12" y1="1868.84" x2="1550.65" y2="2194.34"/><line class="cls-15" x1="1587.97" y1="1917.46" x2="1583.04" y2="2165.43"/><line class="cls-15" x1="1238.26" y1="1907.51" x2="1233.32" y2="2156.03"/><line class="cls-15" x1="1271.01" y1="1860.15" x2="1264.5" y2="2187.66"/><line class="cls-15" x1="1303.49" y1="1826.79" x2="1295.96" y2="2205.28"/><line class="cls-15" x1="1335.74" y1="1804.43" x2="1327.56" y2="2215.91"/><line class="cls-15" x1="1367.83" y1="1790.06" x2="1359.24" y2="2222.55"/><line class="cls-15" x1="1399.79" y1="1782.7" x2="1391" y2="2225.18"/><line class="cls-15" x1="1251.19" y1="1885.93" x2="1602" y2="2133.07"/><line class="cls-15" x1="1270.01" y1="1861.58" x2="1611.88" y2="2102.41"/><line class="cls-15" x1="1291.18" y1="1839.21" x2="1615.79" y2="2067.91"/><line class="cls-15" x1="1314.61" y1="1817.77" x2="1617.68" y2="2031.27"/><line class="cls-15" x1="1343.25" y1="1800.33" x2="1613.16" y2="1990.47"/><line class="cls-15" x1="1376.73" y1="1786.29" x2="1598.94" y2="1943.19"/><line class="cls-15" x1="1423.21" y1="1781.42" x2="1568.94" y2="1884.09"/><line class="cls-15" x1="1216.57" y1="2124.85" x2="1358.34" y2="2222.38"/><line class="cls-15" x1="1205.2" y1="2079.23" x2="1414.45" y2="2226.64"/><line class="cls-15" x1="1203.05" y1="2040.1" x2="1464" y2="2223.94"/><line class="cls-15" x1="1206.22" y1="2004.72" x2="1505.48" y2="2215.54"/><line class="cls-15" x1="1212.91" y1="1971.81" x2="1539.37" y2="2201.8"/><line class="cls-15" x1="1222.84" y1="1941.19" x2="1566.32" y2="2183.17"/><line class="cls-15" x1="1235.66" y1="1912.61" x2="1586.99" y2="2160.12"/><path class="cls-15" d="M1368.31,1787.15l-30.12-45.06a7.25,7.25,0,0,1,8.49-10.85l22.59,8.15a23.09,23.09,0,0,0,23.87-5.1l8.56-8.25a23.1,23.1,0,0,1,32.91.85l5.82,6.22a23.11,23.11,0,0,0,25.12,5.8l16.2-6.19a9.75,9.75,0,0,1,11.57,14.56l-30.1,44.68"/></g><g id="ONION"><g id="ONION-2" data-name="ONION"><path class="cls-3" d="M1875.34,2151.86l-5.58-4.06c51.82-73.86,167.76-172.79,168.92-173.78l4.42,5.32C2041.94,1980.32,1926.66,2078.7,1875.34,2151.86Z"/><path class="cls-3" d="M1882.3,2162.07l-6-3.36c14.81-27.64,46.58-72.29,113.79-128.07a817,817,0,0,1,74.72-55.32l3.66,5.88a806.12,806.12,0,0,0-74.1,54.87C1957.77,2066.46,1908.61,2113,1882.3,2162.07Z"/><path class="cls-3" d="M1870.91,2149.3l-4.64-5.12c.25-.24,25.74-24.1,55.62-64,27.53-36.8,64.53-95.17,84.47-164.27l6.55,2c-20.25,70.16-57.76,129.32-85.67,166.6C1897,2124.87,1871.16,2149.06,1870.91,2149.3Z"/><polygon class="cls-3" points="1882.22 2152.12 1876.86 2147.78 2047.28 1930.11 2052.64 1934.44 1882.22 2152.12"/><path class="cls-3" d="M1900.74,2202.91l-5.91-3.51c64.11-79.69,202.06-191.21,203.45-192.32l4.5,4.9C2101.41,2013.09,1964.23,2124,1900.74,2202.91Z"/><path class="cls-3" d="M1907.69,2212.49l-6.44-2.77c18.87-29.35,58.11-77.58,138-140.64,47.63-37.63,87.82-63.12,88.22-63.37l3.61,5.54c-.39.25-40.21,25.5-87.48,62.85C2000.06,2108.46,1941.19,2160.36,1907.69,2212.49Z"/><path class="cls-3" d="M1896,2200.79l-4.77-4.68c.3-.26,30.8-26.9,67.55-70.19,33.86-39.88,80.1-102.45,108.14-174.1l7.15,1.36c-28.46,72.74-75.34,136.17-109.66,176.57C1927.23,2173.52,1896.3,2200.52,1896,2200.79Z"/><polygon class="cls-3" points="1908.42 2202.47 1902.78 2198.65 2132.26 1936.66 2137.91 1940.47 1908.42 2202.47"/><polygon class="cls-3" points="1909.04 2166.68 1902.59 2148.83 2131.5 1898.28 2137.14 1902.1 1909.04 2166.68"/></g><path class="cls-9" d="M1918.37,2110.4s-17,16.72-29.66,45.72c-.26,1-.54,2.08-.83,3.15-3.13,11.35-13.48,19.07-25,16.8a21.32,21.32,0,0,1-16.8-25c1.53-7.78,9.44-13.43,19.84-17.64,0,0,0,0,.06,0,1.24-.57,21.3-10.06,39.88-32.83C1905.82,2100.53,1916.65,2099.92,1918.37,2110.4Z"/><path class="cls-9" d="M1950.64,2118.6s-19.9,22.9-26,44.85c-3.12,11.35-13.48,19.08-25,16.8a21.32,21.32,0,0,1-16.8-25c1.18-6,7.09-10.8,14.63-15l.07,0c.36-.17,2.2-1.05,5.06-2.64,7.75-4.3,22.93-13.74,35.79-27.81C1938.33,2109.72,1949.6,2108.22,1950.64,2118.6Z"/><path class="cls-9" d="M1902.54,2137.53c-2.86,1.59-4.7,2.47-5.06,2.64C1899.09,2139.26,1900.8,2138.39,1902.54,2137.53Z"/><path class="cls-9" d="M1952.33,2156.75s-25.46,30.9-34.57,59.52c-3.12,11.35-14.21,18.94-25.76,16.66a21.32,21.32,0,0,1-16.81-25c2.22-11.24,21-20,34.4-29.35,8.77-8.61,19.38-19.35,29.51-30.45C1939.1,2148.09,1951.28,2146.38,1952.33,2156.75Z"/></g><g id="CART-3" data-name="CART"><path class="cls-2" d="M2064.92,2098.13l-63.65,129a157.17,157.17,0,0,1-140.94,87.63H1413.09a190.51,190.51,0,0,1-177.33-120.92L1123.52,1906.2l469.23,180.31a174.8,174.8,0,0,0,62.66,11.62Z"/><path class="cls-1" d="M2064.92,2098.13l-63.65,129a157.17,157.17,0,0,1-140.94,87.63h-23A190.51,190.51,0,0,1,1660,2193.86l-38.88-99.14a173.73,173.73,0,0,0,34.31,3.41Z"/><path class="cls-16" d="M1137.67,1900h-44.31a5,5,0,0,0-1.8,9.69l502.14,192.95a187.76,187.76,0,0,0,67.35,12.49H2096.7a3.84,3.84,0,0,0,1.36-7.43l-50.83-19.56"/><ellipse class="cls-7" cx="1907.93" cy="2368.13" rx="111.59" ry="145.47"/><ellipse class="cls-17" cx="1874.23" cy="2368.13" rx="77.89" ry="131.93"/><ellipse class="cls-17" cx="1871.67" cy="2368.13" rx="16.13" ry="27.31"/><path class="cls-5" d="M796.07,1605.91h69.35a157.46,157.46,0,0,1,155,129.52l146.18,738.62a31.64,31.64,0,0,0,31.13,26h0a31.66,31.66,0,0,0,30.24-22.34l85.32-310a43.14,43.14,0,0,1,59.46-27.82l501.51,228.22"/></g></g><g id="MAN-2" data-name="MAN"><g id="RIGHT_HAND" data-name="RIGHT HAND"><path class="cls-1" d="M1050.19,1325.36c-6.24-.64-41.5-2.09-82.83,39.29-39.83,39.89-46,71.84-46.86,79.26C821,1279.09,821.43,1048.13,800.87,982.66l34.41.07c44,.09,87.36,26.52,97.83,69.21C960.14,1162.17,1006.39,1255.23,1050.19,1325.36Z"/><path class="cls-2" d="M1050.19,1325.36c-6.24-.64-41.5-2.09-82.83,39.29-39.83,39.89-46,71.84-46.86,79.26A523.71,523.71,0,0,1,889.64,1384c2.71-12,12.49-40.24,47.24-74,30.53-29.64,63.67-36.66,81.34-38a14.89,14.89,0,0,1,15,9.5Z"/><path class="cls-18" d="M1287.63,1631.24l-88,2.47a18.88,18.88,0,0,1-18-11.68l-6-14.69-57.61-.89c-83-36.81-144-82.83-197.68-160.91,0,0,1.44-35.24,47-80.89s82.77-39.17,82.77-39.17c61,101.15,120,158.43,145.92,180.87l44.86.49a45.28,45.28,0,0,1,42,29.72l24.1,65.89A21.44,21.44,0,0,1,1287.63,1631.24Z"/><path class="cls-5" d="M1261.45,1632.11a21.45,21.45,0,0,0,19.4-28.8l-13.33-36.44"/><path class="cls-5" d="M1232.37,1632.67a21.45,21.45,0,0,0,19.39-28.81l-13.32-36.44"/><path class="cls-5" d="M1204.38,1633.57a21.46,21.46,0,0,0,19.4-28.81l-13.33-36.44"/><path class="cls-5" d="M1118,1606.45h57.6v-8.84a27.32,27.32,0,0,0-27.32-27.31H1143l-20.39-14.22"/></g><g id="CLOTHES"><path class="cls-11" d="M980.29,2424a390,390,0,0,0-47.12-2.81c-78.76,0-146.58,22.81-177,55.59-.11-.86-.19-1.72-.22-2.6l-27.54-692.26-112.11,640.2a393.47,393.47,0,0,0-48.88-3c-81.31,0-150.94,24.31-179.85,58.79a32.59,32.59,0,0,1-.67-12l151-1022.52L529.73,1097c6.74-65.16,30.8-114.68,96.32-114.68H843.2a53.25,53.25,0,0,1,53.14,49.88Z"/><path class="cls-5" d="M778,2476.8a24.86,24.86,0,0,1-.22-2.6l-.2-5.89"/><line class="cls-19" x1="777.04" y1="2451.2" x2="750.85" y2="1672.89"/><line class="cls-5" x1="750.56" y1="1664.34" x2="750.27" y2="1655.84"/><line class="cls-5" x1="411.89" y1="2465.93" x2="413.12" y2="2457.52"/><polyline class="cls-20" points="415.56 2440.87 559.92 1453.41 545.46 1113.92"/><line class="cls-5" x1="545.1" y1="1105.52" x2="544.74" y2="1097.02"/><line class="cls-5" x1="616.25" y1="2422.25" x2="756.7" y2="1614.02"/><path class="cls-5" d="M636.88,1515.13c0,51.58-44.28,93.39-98.9,93.39"/><path class="cls-7" d="M705,1572.53c-55.05-41.89-130.84-104-167.53-162.06l-2.94-104.54Z"/><line class="cls-5" x1="829.25" y1="1613.45" x2="746.98" y2="1613.45"/><path class="cls-1" d="M848.72,1021V1167H735.26l-24-100.39c-11.81-49.39-45.55-84.22-96.33-84.22H810A38.69,38.69,0,0,1,848.72,1021Z"/></g><g id="SHOES"><path id="RIGHT-4" data-name="RIGHT" class="cls-7" d="M1021.63,2502.84H785.74a29.83,29.83,0,0,1-29.59-26c30.44-32.78,98.26-55.59,177-55.59a390,390,0,0,1,47.12,2.81v.15l50.81,53.9C1040.81,2486.76,1034.66,2502.84,1021.63,2502.84Z"/><path id="LEFT-4" data-name="LEFT" class="cls-7" d="M658.45,2502.84H419.37a32.77,32.77,0,0,1-31.82-24.92c28.91-34.48,98.54-58.79,179.85-58.79a393.47,393.47,0,0,1,48.88,3l0,.11L668.86,2479A14.2,14.2,0,0,1,658.45,2502.84Z"/></g><g id="LEFT_HAND" data-name="LEFT HAND"><path class="cls-1" d="M723.75,1312.17c-.14-.24-.3-.47-.46-.7-10.78-14.72-49.25-4.57-85.93,22.68-34.66,25.74-55.33,57.52-48.43,73.37-67.91-82.36-83.47-179.93-97.14-270.61-12-79.41,27.77-133.19,87.69-138.91,31.31-3,82.85,15,92.75,83.24C685.76,1174.44,704.2,1250.7,723.75,1312.17Z"/><path class="cls-2" d="M723.28,1311.47c-10.77-14.72-49.24-4.57-85.93,22.68s-57.69,61.27-46.92,76l-29.71-41.74c-10.47-16.35,7.83-59.45,48.58-86s94.6-35.88,101.1-15.32Z"/><path class="cls-18" d="M804.6,1616.53a142.43,142.43,0,0,1-96.66-39.31c-50-47.82-88.56-106.73-118.48-168.6h0c-.16-.35-.34-.69-.51-1l0,0c-6.9-15.85,13.77-47.63,48.43-73.37,37.2-27.64,76.25-37.69,86.37-22l0,.05c.76,2.4,1.41,4.8,2.29,7.12,31.7,83.62,84.77,170.59,103.66,196.21l54.82.72a45.27,45.27,0,0,1,42,29.72l24.1,65.89a21.44,21.44,0,0,1-19.39,28.79l-88,2.47a18.88,18.88,0,0,1-18-11.68l-6-14.7Z"/><path class="cls-5" d="M905.06,1641.49a21.46,21.46,0,0,0,19.4-28.81l-13.33-36.44"/><path class="cls-5" d="M876,1642.05a21.46,21.46,0,0,0,19.4-28.81l-13.33-36.44"/><path class="cls-5" d="M848,1642.94a21.45,21.45,0,0,0,19.4-28.8l-13.33-36.44"/><line class="cls-5" x1="814.68" y1="1599.24" x2="827.94" y2="1635.26"/><line class="cls-5" x1="800.87" y1="1515.64" x2="829.7" y2="1515.64"/></g><g id="HEAD-2" data-name="HEAD"><g id="HAT"><ellipse class="cls-7" cx="758.16" cy="871.12" rx="143.3" ry="31.26" transform="translate(-300.6 409.94) rotate(-25.43)"/><path class="cls-21" d="M621.88,931.6c8,16.52,74.79,1.72,149.24-34.19s128.33-79.34,120.36-95.86-74.78-.8-149.23,35.11S613.91,915.08,621.88,931.6Z"/><path class="cls-22" d="M712.32,851.79l-.44-13.07c-.51-15.24,9.87-29,25.52-33.88l24.19-7.48a39.34,39.34,0,0,1,36,6.55l7.48,6"/></g><g id="NECK-2" data-name="NECK"><path class="cls-18" d="M793.11,984.16V934l-71.31-37.2-42.38,87.32S737.82,1029.64,793.11,984.16Z"/><polygon class="cls-7" points="793.11 984.16 793.11 934.04 721.8 896.84 714.21 912.47 793.11 984.16"/></g><path id="HAIR-2" data-name="HAIR" class="cls-6" d="M797.57,827.18c14.53-5.63,50.61-6,35.56,17.46-15.29,23.82-54.52,13.71-75,7.58h0l-6.85-2.08A17.33,17.33,0,0,0,744.21,861l-2.65,13.42h-18l-.25-2c-1.19-9.73,5.26-17,14.46-20.4Z"/><path id="HEAD-3" data-name="HEAD" class="cls-18" d="M786.7,941.65H772.49a33.72,33.72,0,0,1-30.6-19.53l-6.63-14.25H723.69a17.18,17.18,0,0,1,0-34.36h18.06L744.21,861a17.33,17.33,0,0,1,7.08-10.87c12,3.58,39.41,12.82,60.52,8.32a387.88,387.88,0,0,0,1.68,53.42A26.9,26.9,0,0,1,786.7,941.65Z"/><g id="FACE"><path class="cls-23" d="M812,873.36s-12.1-3.14-18.31,7.28c-4.1,6.88-1.06,32.47-1.06,32.47"/><path class="cls-23" d="M776,873.43s-12.46-1.85-23.08,5"/><ellipse class="cls-7" cx="804.55" cy="889.29" rx="2.53" ry="4.85" transform="translate(-57.42 55.53) rotate(-3.82)"/><ellipse class="cls-7" cx="768.61" cy="889.96" rx="2.69" ry="5.17" transform="translate(-57.54 53.14) rotate(-3.82)"/></g><path id="EAR" class="cls-23" d="M734.55,894.32a13.16,13.16,0,0,0-13.16-13.47"/></g></g></g></g></g></svg>