<svg id="Capa_1" enable-background="new 0 0 512 512" height="512" viewBox="0 0 512 512" width="512" xmlns="http://www.w3.org/2000/svg"><g><g><path d="m256 7.5c-76.291 0-144.552 34.379-190.136 88.49l-28.371 41.56c-19.128 35.211-29.993 75.562-29.993 118.45 0 137.243 111.257 248.5 248.5 248.5s248.5-111.257 248.5-248.5-111.257-248.5-248.5-248.5z" fill="#7dc3ee"/><path d="m347.803 264.218c-2.103 23.135 12.54 44.497 34.877 50.879l17.611 5.032 24.819 117.887c48.815-45.376 79.39-110.111 79.39-182.016 0-9.087-.52-18.049-1.47-26.884l-102.55-8.67c-26.645-2.498-50.254 17.119-52.677 43.772z" fill="#afefa5"/><path d="m304.097 464.419c-137.243 0-248.5-111.258-248.5-248.5 0-18.611 2.055-36.738 5.939-54.176l-27.452-17.615c-17 33.617-26.584 71.619-26.584 111.872 0 137.242 111.257 248.5 248.5 248.5 71.792 0 136.432-30.481 181.797-79.162-38.61 24.703-84.463 39.081-133.7 39.081z" fill="#64acdc"/><g fill="#afefa5"><path d="m280.451 63.289 20.272 55.409c1.941 5.307 8.617 6.993 12.845 3.245l39.642-35.138c4.607-4.083 3.083-11.619-2.748-13.592l-59.914-20.272c-6.374-2.156-12.409 4.028-10.097 10.348z"/><path d="m485.71 161.145c-10.683-25.842-25.601-49.473-43.886-70.06l-24.048 24.603c-1.881 1.924-4.625 2.854-7.242 2.226-9.288-2.232-19.162 2.309-23.33 11.304l-9.825 21.201c-4.577 9.877-2.176 22.06 6.641 28.445 10.312 7.467 24.136 5 31.349-4.672l6.402-8.585c3.173-4.255 8.246-6.663 13.548-6.433z"/><path d="m238.776 91.671-17.761-20.398c-6.622-7.606-18.538-7.281-24.736.674l-13.992 17.953-88.079-22.43c-16.594 14.254-31.223 30.69-43.575 48.809l29.016 95.653c7.688 12.907 21.948 20.431 36.94 19.492l23.241-1.455-6.043-25.497c-1.092-4.605 2.024-9.149 6.713-9.792l33.585-4.596c13.453-1.84 25.5-9.282 33.169-20.487l33.231-48.552c6.186-9.037 5.483-21.114-1.709-29.374z"/><path d="m176 255-74.64 21.5c-11.949 4.336-14.34 20.188-4.205 27.856l34.094 25.793 4.313 86.265c.429 8.581 5.544 16.229 13.31 19.902 12.879 6.091 28.16-.697 32.274-14.337l44.292-143.434z"/></g><path d="m159.579 415.215-4.313-86.281c-.356-7.099-3.835-13.676-9.503-17.964l-11.504-8.702c-4.784-3.619-3.709-11.089 1.902-13.21l45.173-17.077-8.501-22.494-71.473 27.013c-11.949 4.336-14.34 20.188-4.205 27.856l34.094 25.793 4.313 86.265c.429 8.581 5.544 16.229 13.31 19.902 8.693 4.111 18.402 2.256 25.111-3.513-7.027-3.79-13.997-9.532-14.404-17.588z" fill="#8ce1a4"/><path d="m151.785 48.215c.278-17.032-13.595-31.915-30.613-32.666-10.171-.449-19.325 3.866-25.495 10.873-6.17-7.006-15.324-11.322-25.495-10.873-17.017.751-30.89 15.633-30.612 32.666.509 31.244 38.469 59.67 51.654 68.611 2.709 1.837 6.197 1.837 8.906 0 13.186-8.942 51.146-37.368 51.655-68.611z" fill="#ff7d91"/><path d="m139.831 229.969-5.704-24.065-19.043 1.518c-6.083.301-11.672-2.611-14.772-7.805l-49.679-83.338c-5.422 7.953-10.45 16.196-14.936 24.777l43.953 70.876c7.688 12.907 21.947 20.431 36.941 19.492z" fill="#8ce1a4"/><path d="m324.615 112.151-19.909-54.42-14.157-4.79c-6.374-2.157-12.41 4.027-10.096 10.347l20.271 55.409c1.941 5.307 8.617 6.993 12.846 3.244z" fill="#8ce1a4"/><path d="m414.927 169.578c-1.775-.385-3.24-.928-4.481-1.662-5.751-3.403-8.23-11.195-5.767-18.126l10.953-30.201 1.116-3.077c-1.785 1.32-4.028 1.927-6.213 1.402-9.289-2.232-19.163 2.309-23.331 11.304l-9.824 21.201c-4.578 9.877-2.176 22.06 6.641 28.444 10.313 7.467 24.135 5 31.349-4.672l2.899-3.888z" fill="#8ce1a4"/><path d="m64.121 35.208c-.118-7.27 2.447-14.065 6.63-19.62-.194.005-.373-.049-.568-.04-17.019.752-30.891 15.634-30.613 32.666.509 31.244 38.468 59.67 51.654 68.611 2.71 1.837 6.197 1.837 8.907 0 3.862-2.62 9.87-6.948 16.421-12.493-12.269-8.203-51.91-37.145-52.431-69.124z" fill="#e15f78"/><path d="m282.381 251.958c.278-17.032-13.595-31.915-30.613-32.666-10.171-.449-19.325 3.866-25.495 10.873-6.17-7.006-15.324-11.322-25.495-10.873-17.018.752-30.89 15.634-30.613 32.666.509 31.244 38.469 59.67 51.654 68.611 2.709 1.837 6.197 1.837 8.906 0 13.187-8.941 51.147-37.367 51.656-68.611z" fill="#ff7d91"/><path d="m194.717 238.951c-.118-7.27 2.447-14.065 6.63-19.62-.194.005-.373-.049-.568-.04-17.019.752-30.89 15.634-30.612 32.666.509 31.244 38.468 59.67 51.654 68.611 2.71 1.837 6.197 1.837 8.907 0 3.862-2.62 9.87-6.948 16.421-12.493-12.27-8.203-51.911-37.145-52.432-69.124z" fill="#e15f78"/><path d="m456.398 312.747c.278-17.032-13.595-31.915-30.613-32.666-10.171-.449-19.325 3.866-25.495 10.873-6.17-7.006-15.324-11.322-25.495-10.873-17.018.752-30.89 15.634-30.613 32.666.509 31.244 38.469 59.67 51.654 68.611 2.709 1.837 6.197 1.837 8.906 0 13.187-8.941 51.147-37.367 51.656-68.611z" fill="#ff7d91"/><path d="m368.734 299.74c-.118-7.27 2.447-14.065 6.63-19.62-.194.005-.373-.049-.568-.04-17.019.752-30.89 15.634-30.612 32.666.509 31.244 38.468 59.67 51.654 68.611 2.71 1.837 6.197 1.837 8.907 0 3.862-2.62 9.87-6.948 16.421-12.493-12.27-8.203-51.911-37.145-52.432-69.124z" fill="#e15f78"/></g><g><path d="m437.02 74.98c-48.353-48.351-112.64-74.98-181.02-74.98-26.506 0-52.636 4.036-77.664 11.995-3.947 1.255-6.13 5.473-4.875 9.42s5.473 6.13 9.42 4.874c23.557-7.491 48.157-11.289 73.119-11.289 64.374 0 124.894 25.068 170.413 70.587 1.905 1.905 3.76 3.846 5.594 5.802l-19.644 19.251c-12.699-3.076-26.271 3.14-31.963 15.422l-10.237 22.091c-3.439 7.421-3.718 15.714-.785 23.35 2.934 7.636 8.692 13.609 16.216 16.82 3.833 1.635 7.84 2.422 11.797 2.422 9.229 0 18.182-4.282 23.992-12.072l6.401-8.584c1.691-2.267 4.377-3.546 7.211-3.424l45.754 1.989c6.604 17.009 11.25 34.795 13.837 53.08l-93.405-8.756c-26.368-2.471-51.055 14.114-58.692 39.438-1.196 3.966 1.05 8.15 5.015 9.346.722.218 1.451.321 2.168.321 3.222 0 6.2-2.093 7.178-5.336 5.583-18.517 23.644-30.644 42.93-28.834l96.473 9.044c.49 6.304.747 12.653.747 19.043 0 62.552-23.675 121.462-66.778 166.509l-2.116-9.733c-.879-4.048-4.876-6.615-8.922-5.736-4.047.88-6.616 4.875-5.735 8.922l4.104 18.878c-44.37 40.175-101.271 62.16-161.553 62.16-64.374 0-124.894-25.068-170.413-70.587s-70.587-106.039-70.587-170.413c0-35.047 7.573-69.425 22.077-100.886l36.129 60.656c8.649 14.521 24.092 23.234 40.826 23.234 1.003 0 2.014-.032 3.026-.095l23.241-1.456c2.207-.138 4.24-1.243 5.557-3.02 1.316-1.776 1.782-4.044 1.272-6.195l-6.043-25.497c-.015-.061-.053-.222.076-.411.129-.188.293-.21.355-.219l33.585-4.596c15.52-2.124 29.495-10.756 38.341-23.682l33.231-48.552c8.114-11.855 7.192-27.702-2.242-38.537l-17.762-20.398c-4.633-5.32-11.348-8.26-18.388-8.07-7.053.192-13.584 3.494-17.921 9.06l-10.93 14.029-4.256-1.145c-4-1.076-8.115 1.295-9.191 5.295s1.294 8.114 5.294 9.19l9.062 2.438c2.914.783 6.011-.254 7.864-2.633l13.99-17.954c1.572-2.018 3.94-3.215 6.498-3.285 2.572-.06 4.988.998 6.667 2.926l17.762 20.397c4.949 5.684 5.432 13.996 1.176 20.214l-33.231 48.553c-6.46 9.439-16.665 15.742-27.997 17.293l-33.585 4.596c-4.327.592-8.224 2.997-10.693 6.599-2.469 3.601-3.308 8.104-2.301 12.353l3.991 16.838-14.359.899c-12.245.767-23.75-5.304-30.028-15.844l-40.987-68.812c1.877-3.386 3.833-6.734 5.878-10.035 2.182-3.521 1.096-8.144-2.425-10.325-3.522-2.182-8.144-1.096-10.326 2.425-25.012 40.367-38.233 86.929-38.233 134.652 0 68.38 26.629 132.667 74.98 181.02 48.353 48.351 112.64 74.98 181.02 74.98s132.667-26.629 181.02-74.98c48.351-48.353 74.98-112.64 74.98-181.02s-26.629-132.667-74.98-181.02zm-1.374 76.7c-7.782-.338-15.224 3.191-19.886 9.442l-6.402 8.584c-4.147 5.56-11.499 7.542-17.877 4.82-3.758-1.604-6.635-4.587-8.101-8.401s-1.326-7.957.392-11.664l10.237-22.091c2.996-6.466 10.702-9.306 17.179-6.33 2.825 1.298 6.159.718 8.381-1.458l22.373-21.925c12.937 15.63 23.737 32.648 32.244 50.699z"/><path d="m103.917 283.551 35.791-12.987c3.894-1.413 5.905-5.715 4.492-9.609s-5.716-5.905-9.608-4.492l-35.791 12.987c-8.114 2.944-13.954 10.075-15.242 18.609-1.288 8.535 2.188 17.071 9.071 22.278l31.302 23.681 4.139 82.77c.568 11.363 7.31 21.443 17.594 26.308 4.17 1.972 8.668 2.96 13.17 2.96 4.258 0 8.519-.884 12.506-2.655 8.203-3.644 14.394-10.663 16.986-19.26l21.413-71.122c1.194-3.966-1.053-8.149-5.02-9.344-3.964-1.194-8.15 1.053-9.344 5.02l-21.412 71.119c-1.33 4.408-4.505 8.009-8.714 9.879-4.208 1.87-9.01 1.812-13.173-.157-5.276-2.496-8.735-7.667-9.026-13.497l-4.313-86.266c-.111-2.215-1.197-4.268-2.966-5.606l-34.093-25.793c-2.534-1.916-3.763-4.936-3.289-8.077.476-3.14 2.542-5.663 5.527-6.746z"/><path d="m293.68 121.275c1.765 4.823 5.792 8.454 10.771 9.712 1.259.318 2.536.474 3.804.474 3.748 0 7.416-1.359 10.288-3.905l39.642-35.138c4.188-3.711 6.026-9.201 4.917-14.686-1.108-5.485-4.935-9.83-10.235-11.624l-59.915-20.272c-5.707-1.932-11.869-.452-16.077 3.861-4.209 4.313-5.538 10.508-3.467 16.167zm-6.07-61.101c.228-.232.391-.176.534-.128l59.915 20.271c.112.038.281.096.34.387s-.075.41-.164.488l-39.642 35.138c-.066.059-.204.181-.469.114-.265-.066-.328-.24-.358-.323l-20.272-55.409c-.052-.143-.111-.305.116-.538z"/><path d="m91.785 126.137c1.196.726 2.544 1.089 3.893 1.089s2.697-.363 3.892-1.089c2.439-1.48 59.721-36.74 59.721-78.556 0-21.816-17.749-39.564-39.565-39.564-8.749 0-17.191 2.921-24.048 8.185-6.857-5.264-15.299-8.185-24.048-8.185-21.816 0-39.564 17.749-39.564 39.564-.002 41.816 57.28 77.075 59.719 78.556zm-20.156-103.121c7.026 0 13.74 3.047 18.42 8.361 1.423 1.617 3.474 2.543 5.628 2.543s4.205-.927 5.628-2.543c4.68-5.314 11.394-8.362 18.42-8.362 13.545 0 24.565 11.02 24.565 24.564 0 16.932-13.878 33.666-25.52 44.722-9.008 8.555-18.139 15.128-23.131 18.501-16.506-11.009-48.575-37.673-48.575-63.221 0-13.545 11.02-24.565 24.565-24.565z"/><path d="m400.291 391.758c1.348 0 2.696-.363 3.893-1.089 2.438-1.48 59.72-36.74 59.72-78.556 0-21.816-17.749-39.564-39.564-39.564-8.75 0-17.191 2.921-24.048 8.186-6.857-5.264-15.299-8.186-24.049-8.186-21.816 0-39.564 17.749-39.564 39.564 0 41.816 57.282 77.076 59.721 78.556 1.194.726 2.542 1.089 3.891 1.089zm-48.614-79.645c0-13.545 11.02-24.564 24.564-24.564 7.026 0 13.74 3.047 18.42 8.362 1.424 1.617 3.474 2.543 5.628 2.543s4.205-.927 5.628-2.543c4.68-5.314 11.394-8.361 18.42-8.361 13.545 0 24.564 11.02 24.564 24.564 0 16.932-13.878 33.666-25.52 44.722-9.008 8.555-18.139 15.128-23.13 18.501-16.505-11.012-48.574-37.676-48.574-63.224z"/><path d="m226.273 219.944c-6.857-5.264-15.299-8.185-24.048-8.185-21.816 0-39.564 17.748-39.564 39.564 0 41.816 57.282 77.075 59.721 78.556 1.196.726 2.544 1.089 3.892 1.089s2.696-.363 3.892-1.089c2.438-1.48 59.721-36.739 59.721-78.556 0-21.816-17.749-39.564-39.564-39.564-8.751.001-17.193 2.922-24.05 8.185zm48.613 31.38c0 16.932-13.878 33.666-25.52 44.722-9.008 8.555-18.139 15.128-23.13 18.501-16.507-11.011-48.575-37.675-48.575-63.223 0-13.545 11.02-24.564 24.564-24.564 7.027 0 13.74 3.047 18.42 8.361 1.424 1.617 3.474 2.543 5.628 2.543s4.205-.927 5.628-2.543c4.68-5.313 11.393-8.361 18.42-8.361 13.546 0 24.565 11.019 24.565 24.564z"/></g></g></svg>