<svg width="138" height="118" viewBox="0 0 138 118" fill="none" xmlns="http://www.w3.org/2000/svg">
<path d="M102.066 16.8122C112.381 22.5506 122.875 27.2942 128.616 34.7158C134.446 42.1373 135.432 52.3133 136.688 63.0248C137.944 73.8128 139.469 85.2129 135.074 94.5472C130.589 103.882 120.095 111.303 108.614 114.899C97.0435 118.495 84.307 118.342 72.1983 117.5C60.0897 116.659 48.5192 115.129 37.3972 111.38C26.2751 107.554 15.5119 101.433 8.51579 92.864C1.51968 84.3713 -1.79899 73.3537 0.981512 63.7899C3.76202 54.1495 12.6417 45.9629 18.4718 35.6339C24.2122 25.3049 26.9927 12.8337 35.3342 6.17724C43.6757 -0.479199 57.6679 -1.32082 69.6869 1.58659C81.7058 4.494 91.8412 11.1504 102.066 16.8122Z" fill="#F8AC4C"/>
</svg>
